%TF.GenerationSoftware,KiCad,Pcbnew,6.0.6-3a73a75311~116~ubuntu22.04.1*%
%TF.CreationDate,2022-07-03T12:29:08-05:00*%
%TF.ProjectId,board,626f6172-642e-46b6-9963-61645f706362,rev?*%
%TF.SameCoordinates,Original*%
%TF.FileFunction,Paste,Top*%
%TF.FilePolarity,Positive*%
%FSLAX46Y46*%
G04 Gerber Fmt 4.6, Leading zero omitted, Abs format (unit mm)*
G04 Created by KiCad (PCBNEW 6.0.6-3a73a75311~116~ubuntu22.04.1) date 2022-07-03 12:29:08*
%MOMM*%
%LPD*%
G01*
G04 APERTURE LIST*
G04 Aperture macros list*
%AMRoundRect*
0 Rectangle with rounded corners*
0 $1 Rounding radius*
0 $2 $3 $4 $5 $6 $7 $8 $9 X,Y pos of 4 corners*
0 Add a 4 corners polygon primitive as box body*
4,1,4,$2,$3,$4,$5,$6,$7,$8,$9,$2,$3,0*
0 Add four circle primitives for the rounded corners*
1,1,$1+$1,$2,$3*
1,1,$1+$1,$4,$5*
1,1,$1+$1,$6,$7*
1,1,$1+$1,$8,$9*
0 Add four rect primitives between the rounded corners*
20,1,$1+$1,$2,$3,$4,$5,0*
20,1,$1+$1,$4,$5,$6,$7,0*
20,1,$1+$1,$6,$7,$8,$9,0*
20,1,$1+$1,$8,$9,$2,$3,0*%
%AMRotRect*
0 Rectangle, with rotation*
0 The origin of the aperture is its center*
0 $1 length*
0 $2 width*
0 $3 Rotation angle, in degrees counterclockwise*
0 Add horizontal line*
21,1,$1,$2,0,0,$3*%
G04 Aperture macros list end*
%ADD10R,7.000000X6.000000*%
%ADD11R,2.500000X2.550000*%
%ADD12R,1.700000X2.700000*%
%ADD13R,2.550000X2.500000*%
%ADD14RotRect,1.500000X1.000000X30.000000*%
%ADD15R,2.700000X1.700000*%
%ADD16RotRect,2.550000X2.500000X332.190000*%
%ADD17RoundRect,0.250000X-0.054784X-0.580112X0.529784X-0.242612X0.054784X0.580112X-0.529784X0.242612X0*%
%ADD18RotRect,2.550000X2.500000X318.220000*%
%ADD19RoundRect,0.250000X0.580112X-0.054784X0.242612X0.529784X-0.580112X0.054784X-0.242612X-0.529784X0*%
%ADD20RoundRect,0.250000X-0.056458X-0.552211X0.506458X-0.227211X0.056458X0.552211X-0.506458X0.227211X0*%
%ADD21RotRect,0.600000X1.000000X300.000000*%
%ADD22RotRect,0.700000X1.000000X300.000000*%
%ADD23RotRect,1.560000X0.650000X30.000000*%
G04 APERTURE END LIST*
D10*
%TO.C,Battery1*%
X135890000Y-139180000D03*
X135890000Y-74180000D03*
%TD*%
D11*
%TO.C,K31*%
X148100000Y-92325000D03*
X150640000Y-78475000D03*
%TD*%
D12*
%TO.C,D20*%
X116840000Y-102910000D03*
X116840000Y-107910000D03*
%TD*%
D11*
%TO.C,K01*%
X89600001Y-106950000D03*
X92140001Y-93100000D03*
%TD*%
%TO.C,K03*%
X89600000Y-67950001D03*
X92140000Y-54100001D03*
%TD*%
D13*
%TO.C,K42*%
X172620000Y-67600000D03*
X158770000Y-65060000D03*
%TD*%
D14*
%TO.C,LED2*%
X199696251Y-93609032D03*
X201296251Y-96380314D03*
X205539775Y-93930314D03*
X203939775Y-91159032D03*
%TD*%
D13*
%TO.C,K11*%
X114120000Y-91975000D03*
X100270000Y-89435000D03*
%TD*%
D15*
%TO.C,D32*%
X147280000Y-69850000D03*
X142280000Y-69850000D03*
%TD*%
D11*
%TO.C,K00*%
X89600000Y-126450000D03*
X92140000Y-112600000D03*
%TD*%
D16*
%TO.C,K60*%
X196465848Y-116645379D03*
X207531153Y-125353601D03*
%TD*%
D13*
%TO.C,K32*%
X153120000Y-62725001D03*
X139270000Y-60185001D03*
%TD*%
%TO.C,K10*%
X114120000Y-111475000D03*
X100270000Y-108935000D03*
%TD*%
%TO.C,K43*%
X157500000Y-53180000D03*
X171350000Y-55720000D03*
%TD*%
D14*
%TO.C,LED3*%
X197089113Y-87682453D03*
X198689113Y-90453735D03*
X202932637Y-88003735D03*
X201332637Y-85232453D03*
%TD*%
D15*
%TO.C,D10*%
X109180000Y-104140000D03*
X104180000Y-104140000D03*
%TD*%
%TO.C,D11*%
X109180000Y-83820000D03*
X104180000Y-83820000D03*
%TD*%
D12*
%TO.C,D03*%
X96520000Y-67270000D03*
X96520000Y-62270000D03*
%TD*%
D11*
%TO.C,K21*%
X123520000Y-82080000D03*
X120980000Y-95930000D03*
%TD*%
D15*
%TO.C,D40*%
X167600000Y-99060000D03*
X162600000Y-99060000D03*
%TD*%
D13*
%TO.C,K50*%
X192120000Y-106600000D03*
X178270000Y-104060000D03*
%TD*%
%TO.C,K33*%
X138000000Y-48305000D03*
X151850000Y-50845000D03*
%TD*%
D17*
%TO.C,C2*%
X198589452Y-103974250D03*
X200386454Y-102936750D03*
%TD*%
D15*
%TO.C,D13*%
X109180000Y-64770000D03*
X104180000Y-64770000D03*
%TD*%
D18*
%TO.C,K61*%
X212485798Y-127973764D03*
X221121531Y-139095734D03*
%TD*%
D15*
%TO.C,D61*%
X196255000Y-139065000D03*
X201255000Y-139065000D03*
%TD*%
%TO.C,D12*%
X109180000Y-80010000D03*
X104180000Y-80010000D03*
%TD*%
D12*
%TO.C,D02*%
X96520000Y-82510000D03*
X96520000Y-77510000D03*
%TD*%
D15*
%TO.C,D22*%
X128230000Y-74930000D03*
X123230000Y-74930000D03*
%TD*%
D14*
%TO.C,LED4*%
X194688238Y-81669359D03*
X196288238Y-84440641D03*
X200531762Y-81990641D03*
X198931762Y-79219359D03*
%TD*%
D13*
%TO.C,K51*%
X177000000Y-92180000D03*
X190850000Y-94720000D03*
%TD*%
D12*
%TO.C,D00*%
X96520000Y-116880000D03*
X96520000Y-121880000D03*
%TD*%
%TO.C,D21*%
X116840000Y-82590000D03*
X116840000Y-87590000D03*
%TD*%
D13*
%TO.C,K22*%
X133620000Y-67600000D03*
X119770000Y-65060000D03*
%TD*%
D14*
%TO.C,LED1*%
X202506538Y-99442023D03*
X204106538Y-102213305D03*
X208350062Y-99763305D03*
X206750062Y-96992023D03*
%TD*%
D15*
%TO.C,D43*%
X167600000Y-59690000D03*
X162600000Y-59690000D03*
%TD*%
%TO.C,D51*%
X182920000Y-78740000D03*
X187920000Y-78740000D03*
%TD*%
D13*
%TO.C,K53*%
X177000000Y-53180000D03*
X190850000Y-55720000D03*
%TD*%
D19*
%TO.C,C1*%
X193937774Y-102243022D03*
X192900274Y-100446020D03*
%TD*%
D15*
%TO.C,D52*%
X182060000Y-74930000D03*
X187060000Y-74930000D03*
%TD*%
D12*
%TO.C,D30*%
X154940000Y-95290000D03*
X154940000Y-100290000D03*
%TD*%
D15*
%TO.C,D60*%
X196215000Y-142875000D03*
X201215000Y-142875000D03*
%TD*%
D11*
%TO.C,K20*%
X123520000Y-101580000D03*
X120980000Y-115430000D03*
%TD*%
%TO.C,K30*%
X148100000Y-111825000D03*
X150640000Y-97975000D03*
%TD*%
D15*
%TO.C,D23*%
X129500000Y-59690000D03*
X124500000Y-59690000D03*
%TD*%
D20*
%TO.C,L1*%
X194189471Y-96328257D03*
X195964823Y-95303257D03*
%TD*%
D15*
%TO.C,D50*%
X180380000Y-99060000D03*
X185380000Y-99060000D03*
%TD*%
%TO.C,D53*%
X181650000Y-60960000D03*
X186650000Y-60960000D03*
%TD*%
D14*
%TO.C,LED0*%
X205516622Y-105174466D03*
X207116622Y-107945748D03*
X211360146Y-105495748D03*
X209760146Y-102724466D03*
%TD*%
D21*
%TO.C,Boost1*%
X195751222Y-99383292D03*
X196226222Y-100206016D03*
X196701222Y-101028740D03*
D22*
X198779682Y-99828740D03*
X197829682Y-98183292D03*
%TD*%
D13*
%TO.C,K40*%
X172620000Y-106600000D03*
X158770000Y-104060000D03*
%TD*%
%TO.C,K52*%
X192120000Y-67599999D03*
X178270000Y-65059999D03*
%TD*%
D15*
%TO.C,D41*%
X167600000Y-78740000D03*
X162600000Y-78740000D03*
%TD*%
%TO.C,D42*%
X168235000Y-74930000D03*
X163235000Y-74930000D03*
%TD*%
D11*
%TO.C,K02*%
X89600000Y-87450000D03*
X92140000Y-73600000D03*
%TD*%
D13*
%TO.C,K13*%
X99000000Y-58055000D03*
X112850000Y-60595000D03*
%TD*%
%TO.C,K23*%
X118500000Y-53180000D03*
X132350000Y-55720000D03*
%TD*%
D12*
%TO.C,D01*%
X96520000Y-97830000D03*
X96520000Y-102830000D03*
%TD*%
D13*
%TO.C,K41*%
X172620000Y-87100000D03*
X158770000Y-84560000D03*
%TD*%
%TO.C,K12*%
X114120000Y-72475000D03*
X100270000Y-69935000D03*
%TD*%
D23*
%TO.C,LvlShft1*%
X199082616Y-108458435D03*
X199557616Y-109281159D03*
X200032616Y-110103883D03*
X202370884Y-108753883D03*
X201895884Y-107931159D03*
X201420884Y-107108435D03*
%TD*%
D12*
%TO.C,D31*%
X154940000Y-76240000D03*
X154940000Y-81240000D03*
%TD*%
D15*
%TO.C,D33*%
X148550000Y-55880000D03*
X143550000Y-55880000D03*
%TD*%
M02*
