%TF.GenerationSoftware,KiCad,Pcbnew,6.0.5-a6ca702e91~116~ubuntu22.04.1*%
%TF.CreationDate,2022-05-20T13:25:00-05:00*%
%TF.ProjectId,board,626f6172-642e-46b6-9963-61645f706362,rev?*%
%TF.SameCoordinates,Original*%
%TF.FileFunction,Paste,Bot*%
%TF.FilePolarity,Positive*%
%FSLAX46Y46*%
G04 Gerber Fmt 4.6, Leading zero omitted, Abs format (unit mm)*
G04 Created by KiCad (PCBNEW 6.0.5-a6ca702e91~116~ubuntu22.04.1) date 2022-05-20 13:25:00*
%MOMM*%
%LPD*%
G01*
G04 APERTURE LIST*
G04 Aperture macros list*
%AMRotRect*
0 Rectangle, with rotation*
0 The origin of the aperture is its center*
0 $1 length*
0 $2 width*
0 $3 Rotation angle, in degrees counterclockwise*
0 Add horizontal line*
21,1,$1,$2,0,0,$3*%
G04 Aperture macros list end*
%ADD10R,2.700000X1.700000*%
%ADD11RotRect,2.700000X1.700000X330.000000*%
%ADD12RotRect,1.500000X1.000000X210.000000*%
%ADD13RotRect,2.550000X2.500000X138.220000*%
%ADD14RotRect,2.550000X2.500000X152.190000*%
%ADD15R,2.550000X2.500000*%
G04 APERTURE END LIST*
D10*
%TO.C,D20*%
X129500000Y-99060000D03*
X124500000Y-99060000D03*
%TD*%
D11*
%TO.C,D61*%
X218814936Y-123210000D03*
X223145064Y-125710000D03*
%TD*%
%TO.C,D60*%
X206114936Y-112685000D03*
X210445064Y-115185000D03*
%TD*%
D10*
%TO.C,D53*%
X181650000Y-60960000D03*
X186650000Y-60960000D03*
%TD*%
%TO.C,D52*%
X182060000Y-74930000D03*
X187060000Y-74930000D03*
%TD*%
%TO.C,D51*%
X182920000Y-78740000D03*
X187920000Y-78740000D03*
%TD*%
%TO.C,D50*%
X180380000Y-99060000D03*
X185380000Y-99060000D03*
%TD*%
%TO.C,D43*%
X167600000Y-59690000D03*
X162600000Y-59690000D03*
%TD*%
%TO.C,D42*%
X168235000Y-74930000D03*
X163235000Y-74930000D03*
%TD*%
%TO.C,D41*%
X167600000Y-78740000D03*
X162600000Y-78740000D03*
%TD*%
%TO.C,D40*%
X167600000Y-99060000D03*
X162600000Y-99060000D03*
%TD*%
%TO.C,D33*%
X148550000Y-55880000D03*
X143550000Y-55880000D03*
%TD*%
%TO.C,D32*%
X147280000Y-69850000D03*
X142280000Y-69850000D03*
%TD*%
%TO.C,D31*%
X149820000Y-73660000D03*
X144820000Y-73660000D03*
%TD*%
%TO.C,D30*%
X147280000Y-93980000D03*
X142280000Y-93980000D03*
%TD*%
%TO.C,D23*%
X129500000Y-59690000D03*
X124500000Y-59690000D03*
%TD*%
%TO.C,D22*%
X128230000Y-74930000D03*
X123230000Y-74930000D03*
%TD*%
%TO.C,D21*%
X129500000Y-78740000D03*
X124500000Y-78740000D03*
%TD*%
%TO.C,D13*%
X109180000Y-64770000D03*
X104180000Y-64770000D03*
%TD*%
%TO.C,D12*%
X109180000Y-80010000D03*
X104180000Y-80010000D03*
%TD*%
%TO.C,D11*%
X109180000Y-83820000D03*
X104180000Y-83820000D03*
%TD*%
%TO.C,D10*%
X109180000Y-104140000D03*
X104180000Y-104140000D03*
%TD*%
%TO.C,D03*%
X90130000Y-69850000D03*
X85130000Y-69850000D03*
%TD*%
%TO.C,D02*%
X88860000Y-85090000D03*
X83860000Y-85090000D03*
%TD*%
%TO.C,D01*%
X91400000Y-88900000D03*
X86400000Y-88900000D03*
%TD*%
%TO.C,D00*%
X88860000Y-109220000D03*
X83860000Y-109220000D03*
%TD*%
D12*
%TO.C,LED2*%
X203939775Y-91159032D03*
X205539775Y-93930314D03*
X201296251Y-96380314D03*
X199696251Y-93609032D03*
%TD*%
%TO.C,LED1*%
X206750062Y-96992023D03*
X208350062Y-99763305D03*
X204106538Y-102213305D03*
X202506538Y-99442023D03*
%TD*%
%TO.C,LED4*%
X194688238Y-81669359D03*
X196288238Y-84440641D03*
X200531762Y-81990641D03*
X198931762Y-79219359D03*
%TD*%
%TO.C,LED3*%
X201332637Y-85232453D03*
X202932637Y-88003735D03*
X198689113Y-90453735D03*
X197089113Y-87682453D03*
%TD*%
%TO.C,LED0*%
X209760146Y-102724468D03*
X211360146Y-105495750D03*
X207116622Y-107945750D03*
X205516622Y-105174468D03*
%TD*%
D13*
%TO.C,K61*%
X211740517Y-130714030D03*
X223760913Y-138047800D03*
%TD*%
D14*
%TO.C,K60*%
X209839481Y-123699479D03*
X196404148Y-119484515D03*
%TD*%
D15*
%TO.C,K53*%
X178270000Y-55720000D03*
X192120000Y-53180000D03*
%TD*%
%TO.C,K52*%
X190850000Y-65060000D03*
X177000000Y-67600000D03*
%TD*%
%TO.C,K51*%
X178270000Y-94720000D03*
X192120000Y-92180000D03*
%TD*%
%TO.C,K50*%
X190850000Y-104060000D03*
X177000000Y-106600000D03*
%TD*%
%TO.C,K43*%
X158770000Y-55720000D03*
X172620000Y-53180000D03*
%TD*%
%TO.C,K42*%
X171350000Y-65060000D03*
X157500000Y-67600000D03*
%TD*%
%TO.C,K41*%
X171350000Y-84560000D03*
X157500000Y-87100000D03*
%TD*%
%TO.C,K40*%
X171350000Y-104060000D03*
X157500000Y-106600000D03*
%TD*%
%TO.C,K33*%
X139270000Y-50845000D03*
X153120000Y-48305000D03*
%TD*%
%TO.C,K32*%
X151850000Y-60185000D03*
X138000000Y-62725000D03*
%TD*%
%TO.C,K31*%
X151850000Y-79685000D03*
X138000000Y-82225000D03*
%TD*%
%TO.C,K30*%
X151850000Y-99185000D03*
X138000000Y-101725000D03*
%TD*%
%TO.C,K23*%
X119770000Y-55720000D03*
X133620000Y-53180000D03*
%TD*%
%TO.C,K22*%
X132350000Y-65060000D03*
X118500000Y-67600000D03*
%TD*%
%TO.C,K21*%
X132350000Y-84560000D03*
X118500000Y-87100000D03*
%TD*%
%TO.C,K20*%
X132350000Y-104060000D03*
X118500000Y-106600000D03*
%TD*%
%TO.C,K13*%
X100270000Y-60595000D03*
X114120000Y-58055000D03*
%TD*%
%TO.C,K12*%
X112850000Y-69935000D03*
X99000000Y-72475000D03*
%TD*%
%TO.C,K11*%
X112850000Y-89435000D03*
X99000000Y-91975000D03*
%TD*%
%TO.C,K10*%
X112850000Y-108935000D03*
X99000000Y-111475000D03*
%TD*%
%TO.C,K03*%
X80770000Y-65470000D03*
X94620000Y-62930000D03*
%TD*%
%TO.C,K02*%
X93350000Y-74810000D03*
X79500000Y-77350000D03*
%TD*%
%TO.C,K01*%
X93350000Y-94310000D03*
X79500000Y-96850000D03*
%TD*%
%TO.C,K00*%
X93350000Y-113810000D03*
X79500000Y-116350000D03*
%TD*%
M02*
