M48
; DRILL file {KiCad 6.0.5-a6ca702e91~116~ubuntu22.04.1} date Fri May 20 13:25:04 2022
; FORMAT={-:-/ absolute / metric / decimal}
; #@! TF.CreationDate,2022-05-20T13:25:04-05:00
; #@! TF.GenerationSoftware,Kicad,Pcbnew,6.0.5-a6ca702e91~116~ubuntu22.04.1
; #@! TF.FileFunction,Plated,1,2,PTH
FMAT,2
METRIC
; #@! TA.AperFunction,Plated,PTH,ViaDrill
T1C0.400
; #@! TA.AperFunction,Plated,PTH,ComponentDrill
T2C0.400
; #@! TA.AperFunction,Plated,PTH,ComponentDrill
T3C0.800
; #@! TA.AperFunction,Plated,PTH,ComponentDrill
T4C1.100
; #@! TA.AperFunction,Plated,PTH,ComponentDrill
T5C1.190
; #@! TA.AperFunction,Plated,PTH,ComponentDrill
T6C1.520
%
G90
G05
T1
X135.255Y-94.615
X135.89Y-69.85
X136.16Y-93.98
X136.525Y-71.755
X137.16Y-91.44
X137.16Y-93.98
X196.85Y-80.645
X208.28Y-106.68
T2
X80.075Y-64.2
X80.075Y-76.08
X80.075Y-95.58
X80.075Y-115.08
X85.21Y-85.09
X85.21Y-109.22
X86.48Y-69.85
X87.51Y-85.09
X87.51Y-109.22
X87.75Y-88.9
X88.78Y-69.85
X90.05Y-88.9
X94.045Y-64.2
X94.045Y-76.08
X94.045Y-95.58
X94.045Y-115.08
X99.575Y-59.325
X99.575Y-71.205
X99.575Y-90.705
X99.575Y-110.205
X105.53Y-64.77
X105.53Y-80.01
X105.53Y-83.82
X105.53Y-104.14
X107.83Y-64.77
X107.83Y-80.01
X107.83Y-83.82
X107.83Y-104.14
X113.545Y-59.325
X113.545Y-71.205
X113.545Y-90.705
X113.545Y-110.205
X119.075Y-54.45
X119.075Y-66.33
X119.075Y-85.83
X119.075Y-105.33
X124.58Y-74.93
X125.85Y-59.69
X125.85Y-78.74
X125.85Y-99.06
X126.88Y-74.93
X128.15Y-59.69
X128.15Y-78.74
X128.15Y-99.06
X133.045Y-54.45
X133.045Y-66.33
X133.045Y-85.83
X133.045Y-105.33
X138.575Y-49.575
X138.575Y-61.455
X138.575Y-80.955
X138.575Y-100.455
X143.63Y-69.85
X143.63Y-93.98
X144.9Y-55.88
X145.93Y-69.85
X145.93Y-93.98
X146.17Y-73.66
X147.2Y-55.88
X148.47Y-73.66
X152.545Y-49.575
X152.545Y-61.455
X152.545Y-80.955
X152.545Y-100.455
X158.075Y-54.45
X158.075Y-66.33
X158.075Y-85.83
X158.075Y-105.33
X163.95Y-59.69
X163.95Y-78.74
X163.95Y-99.06
X164.585Y-74.93
X166.25Y-59.69
X166.25Y-78.74
X166.25Y-99.06
X166.885Y-74.93
X172.045Y-54.45
X172.045Y-66.33
X172.045Y-85.83
X172.045Y-105.33
X177.575Y-54.45
X177.575Y-66.33
X177.575Y-93.45
X177.575Y-105.33
X181.73Y-99.06
X183.0Y-60.96
X183.41Y-74.93
X184.03Y-99.06
X184.27Y-78.74
X185.3Y-60.96
X185.71Y-74.93
X186.57Y-78.74
X191.545Y-54.45
X191.545Y-66.33
X191.545Y-93.45
X191.545Y-105.33
X196.382Y-118.037
X207.284Y-113.36
X208.738Y-124.555
X209.276Y-114.51
X212.068Y-129.304
X219.984Y-123.885
X221.976Y-125.035
X222.486Y-138.612
T3
X165.095Y-115.575
X165.095Y-118.115
X165.095Y-120.655
X165.095Y-123.195
X165.095Y-125.735
X165.095Y-128.275
X165.095Y-130.815
X165.095Y-133.355
X165.095Y-135.895
X165.095Y-138.435
X165.095Y-140.975
X165.095Y-143.515
X172.725Y-115.575
X172.725Y-118.115
X172.725Y-120.655
X172.725Y-123.195
X172.725Y-125.735
X172.725Y-128.275
X172.725Y-130.815
X172.725Y-133.355
X172.725Y-135.895
X172.725Y-138.435
X172.725Y-140.975
X172.725Y-143.515
X180.335Y-115.575
X180.335Y-118.115
X180.335Y-120.655
X180.335Y-123.195
X180.335Y-125.735
X180.335Y-128.275
X180.335Y-130.815
X180.335Y-133.355
X180.335Y-135.895
X180.335Y-138.435
X180.335Y-140.975
X180.335Y-143.515
X187.965Y-115.575
X187.965Y-118.115
X187.965Y-120.655
X187.965Y-123.195
X187.965Y-125.735
X187.965Y-128.275
X187.965Y-130.815
X187.965Y-133.355
X187.965Y-135.895
X187.965Y-138.435
X187.965Y-140.975
X187.965Y-143.515
T4
X198.12Y-134.62
X198.12Y-139.12
X204.62Y-134.62
X204.62Y-139.12
T5
X98.139Y-125.027
X150.781Y-139.133
T6
X139.7Y-116.84
X139.7Y-121.92
T0
M30
