M48
; DRILL file {KiCad 6.0.5-a6ca702e91~116~ubuntu22.04.1} date Fri May 20 13:25:04 2022
; FORMAT={-:-/ absolute / metric / decimal}
; #@! TF.CreationDate,2022-05-20T13:25:04-05:00
; #@! TF.GenerationSoftware,Kicad,Pcbnew,6.0.5-a6ca702e91~116~ubuntu22.04.1
; #@! TF.FileFunction,NonPlated,1,2,NPTH
FMAT,2
METRIC
; #@! TA.AperFunction,NonPlated,NPTH,ComponentDrill
T1C1.702
; #@! TA.AperFunction,NonPlated,NPTH,ComponentDrill
T2C2.100
; #@! TA.AperFunction,NonPlated,NPTH,ComponentDrill
T3C3.000
; #@! TA.AperFunction,NonPlated,NPTH,ComponentDrill
T4C3.988
%
G90
G05
T1
X81.98Y-60.39
X81.98Y-79.89
X81.98Y-99.39
X81.98Y-118.89
X92.14Y-60.39
X92.14Y-79.89
X92.14Y-99.39
X92.14Y-118.89
X101.48Y-55.515
X101.48Y-75.015
X101.48Y-94.515
X101.48Y-114.015
X111.64Y-55.515
X111.64Y-75.015
X111.64Y-94.515
X111.64Y-114.015
X120.98Y-50.64
X120.98Y-70.14
X120.98Y-89.64
X120.98Y-109.14
X131.14Y-50.64
X131.14Y-70.14
X131.14Y-89.64
X131.14Y-109.14
X140.48Y-45.765
X140.48Y-65.265
X140.48Y-84.765
X140.48Y-104.265
X150.64Y-45.765
X150.64Y-65.265
X150.64Y-84.765
X150.64Y-104.265
X159.98Y-50.64
X159.98Y-70.14
X159.98Y-89.64
X159.98Y-109.14
X170.14Y-50.64
X170.14Y-70.14
X170.14Y-89.64
X170.14Y-109.14
X179.48Y-50.64
X179.48Y-70.14
X179.48Y-89.64
X179.48Y-109.14
X189.64Y-50.64
X189.64Y-70.14
X189.64Y-89.64
X189.64Y-109.14
X199.844Y-115.556
X208.831Y-120.296
X216.027Y-127.732
X223.604Y-134.501
T2
X99.873Y-118.555
T3
X83.25Y-62.93
X83.25Y-77.35
X83.25Y-96.85
X83.25Y-116.35
X84.52Y-65.47
X84.52Y-74.81
X84.52Y-94.31
X84.52Y-113.81
X89.6Y-65.47
X89.6Y-74.81
X89.6Y-94.31
X89.6Y-113.81
X90.87Y-62.93
X90.87Y-77.35
X90.87Y-96.85
X90.87Y-116.35
X102.75Y-58.055
X102.75Y-72.475
X102.75Y-91.975
X102.75Y-111.475
X104.02Y-60.595
X104.02Y-69.935
X104.02Y-89.435
X104.02Y-108.935
X109.1Y-60.595
X109.1Y-69.935
X109.1Y-89.435
X109.1Y-108.935
X110.37Y-58.055
X110.37Y-72.475
X110.37Y-91.975
X110.37Y-111.475
X122.25Y-53.18
X122.25Y-67.6
X122.25Y-87.1
X122.25Y-106.6
X123.52Y-55.72
X123.52Y-65.06
X123.52Y-84.56
X123.52Y-104.06
X128.6Y-55.72
X128.6Y-65.06
X128.6Y-84.56
X128.6Y-104.06
X129.87Y-53.18
X129.87Y-67.6
X129.87Y-87.1
X129.87Y-106.6
X141.75Y-48.305
X141.75Y-62.725
X141.75Y-82.225
X141.75Y-101.725
X143.02Y-50.845
X143.02Y-60.185
X143.02Y-79.685
X143.02Y-99.185
X148.1Y-50.845
X148.1Y-60.185
X148.1Y-79.685
X148.1Y-99.185
X149.37Y-48.305
X149.37Y-62.725
X149.37Y-82.225
X149.37Y-101.725
X161.25Y-53.18
X161.25Y-67.6
X161.25Y-87.1
X161.25Y-106.6
X162.52Y-55.72
X162.52Y-65.06
X162.52Y-84.56
X162.52Y-104.06
X167.6Y-55.72
X167.6Y-65.06
X167.6Y-84.56
X167.6Y-104.06
X168.87Y-53.18
X168.87Y-67.6
X168.87Y-87.1
X168.87Y-106.6
X180.75Y-53.18
X180.75Y-67.6
X180.75Y-92.18
X180.75Y-106.6
X182.02Y-55.72
X182.02Y-65.06
X182.02Y-94.72
X182.02Y-104.06
X187.1Y-55.72
X187.1Y-65.06
X187.1Y-94.72
X187.1Y-104.06
X188.37Y-53.18
X188.37Y-67.6
X188.37Y-92.18
X188.37Y-106.6
X199.721Y-121.234
X199.783Y-118.395
X204.214Y-123.604
X206.523Y-121.95
X214.537Y-133.213
X215.282Y-130.472
X218.325Y-136.597
X220.965Y-135.549
T4
X87.06Y-60.39
X87.06Y-79.89
X87.06Y-99.39
X87.06Y-118.89
X106.56Y-55.515
X106.56Y-75.015
X106.56Y-94.515
X106.56Y-114.015
X126.06Y-50.64
X126.06Y-70.14
X126.06Y-89.64
X126.06Y-109.14
X145.56Y-45.765
X145.56Y-65.265
X145.56Y-84.765
X145.56Y-104.265
X165.06Y-50.64
X165.06Y-70.14
X165.06Y-89.64
X165.06Y-109.14
X184.56Y-50.64
X184.56Y-70.14
X184.56Y-89.64
X184.56Y-109.14
X204.338Y-117.926
X219.816Y-131.117
T0
M30
