%TF.GenerationSoftware,KiCad,Pcbnew,6.0.6-3a73a75311~116~ubuntu22.04.1*%
%TF.CreationDate,2022-07-03T12:29:08-05:00*%
%TF.ProjectId,board,626f6172-642e-46b6-9963-61645f706362,rev?*%
%TF.SameCoordinates,Original*%
%TF.FileFunction,Soldermask,Top*%
%TF.FilePolarity,Negative*%
%FSLAX46Y46*%
G04 Gerber Fmt 4.6, Leading zero omitted, Abs format (unit mm)*
G04 Created by KiCad (PCBNEW 6.0.6-3a73a75311~116~ubuntu22.04.1) date 2022-07-03 12:29:08*
%MOMM*%
%LPD*%
G01*
G04 APERTURE LIST*
G04 Aperture macros list*
%AMRoundRect*
0 Rectangle with rounded corners*
0 $1 Rounding radius*
0 $2 $3 $4 $5 $6 $7 $8 $9 X,Y pos of 4 corners*
0 Add a 4 corners polygon primitive as box body*
4,1,4,$2,$3,$4,$5,$6,$7,$8,$9,$2,$3,0*
0 Add four circle primitives for the rounded corners*
1,1,$1+$1,$2,$3*
1,1,$1+$1,$4,$5*
1,1,$1+$1,$6,$7*
1,1,$1+$1,$8,$9*
0 Add four rect primitives between the rounded corners*
20,1,$1+$1,$2,$3,$4,$5,0*
20,1,$1+$1,$4,$5,$6,$7,0*
20,1,$1+$1,$6,$7,$8,$9,0*
20,1,$1+$1,$8,$9,$2,$3,0*%
%AMRotRect*
0 Rectangle, with rotation*
0 The origin of the aperture is its center*
0 $1 length*
0 $2 width*
0 $3 Rotation angle, in degrees counterclockwise*
0 Add horizontal line*
21,1,$1,$2,0,0,$3*%
%AMFreePoly0*
4,1,31,0.500000,-0.750000,0.000000,-0.750000,0.000000,-0.745033,-0.079941,-0.743568,-0.215256,-0.701293,-0.333266,-0.622738,-0.424486,-0.514219,-0.481581,-0.384460,-0.499164,-0.250000,-0.500000,-0.250000,-0.500000,-0.125000,-2.540000,-0.125000,-2.575502,-0.119852,-2.634624,-0.081678,-2.663753,-0.017613,-2.653655,0.052035,-2.607530,0.105189,-2.540000,0.125000,-0.500000,0.125000,-0.500000,0.250000,
-0.499164,0.250000,-0.499963,0.256109,-0.478152,0.396186,-0.417904,0.524511,-0.324060,0.630769,-0.204165,0.706417,-0.067858,0.745374,0.000000,0.744959,0.000000,0.750000,0.500000,0.750000,0.500000,-0.750000,0.500000,-0.750000,$1*%
%AMFreePoly1*
4,1,20,0.000000,0.744959,0.073905,0.744508,0.209726,0.703889,0.328688,0.626782,0.421226,0.519385,0.479903,0.390333,0.500000,0.250000,0.500000,-0.250000,0.499851,-0.262216,0.476331,-0.402017,0.414519,-0.529596,0.319384,-0.634700,0.198574,-0.708877,0.061801,-0.746166,0.000000,-0.745033,0.000000,-0.750000,-0.500000,-0.750000,-0.500000,0.750000,0.000000,0.750000,0.000000,0.744959,
0.000000,0.744959,$1*%
G04 Aperture macros list end*
%ADD10C,2.101600*%
%ADD11RoundRect,0.050800X3.500000X-3.000000X3.500000X3.000000X-3.500000X3.000000X-3.500000X-3.000000X0*%
%ADD12C,3.987800*%
%ADD13C,1.701800*%
%ADD14C,3.000000*%
%ADD15R,2.500000X2.550000*%
%ADD16C,0.600000*%
%ADD17R,1.700000X2.700000*%
%ADD18R,2.550000X2.500000*%
%ADD19RotRect,1.500000X1.000000X30.000000*%
%ADD20R,2.700000X1.700000*%
%ADD21RotRect,2.550000X2.500000X332.190000*%
%ADD22RoundRect,0.250000X-0.054784X-0.580112X0.529784X-0.242612X0.054784X0.580112X-0.529784X0.242612X0*%
%ADD23RotRect,2.550000X2.500000X318.220000*%
%ADD24RoundRect,0.250000X0.580112X-0.054784X0.242612X0.529784X-0.580112X0.054784X-0.242612X-0.529784X0*%
%ADD25RoundRect,0.250000X-0.056458X-0.552211X0.506458X-0.227211X0.056458X0.552211X-0.506458X0.227211X0*%
%ADD26RotRect,0.600000X1.000000X300.000000*%
%ADD27RotRect,0.700000X1.000000X300.000000*%
%ADD28FreePoly0,180.000000*%
%ADD29O,1.600000X1.600000*%
%ADD30FreePoly0,0.000000*%
%ADD31C,1.600000*%
%ADD32FreePoly1,180.000000*%
%ADD33FreePoly1,0.000000*%
%ADD34RotRect,1.560000X0.650000X30.000000*%
%ADD35C,2.000000*%
%ADD36R,3.000000X3.000000*%
G04 APERTURE END LIST*
D10*
%TO.C,Battery1*%
X142620000Y-134180000D03*
%TD*%
%TO.C,Battery1*%
X129160000Y-134180000D03*
D11*
X135890000Y-139180000D03*
X135890000Y-74180000D03*
%TD*%
D12*
%TO.C,K31*%
X145560000Y-84765000D03*
D13*
X145560000Y-89845000D03*
D14*
X148100000Y-80955000D03*
X150640000Y-87305000D03*
X148100000Y-88575000D03*
D13*
X145560000Y-79685000D03*
D14*
X150640000Y-82225000D03*
D15*
X148100000Y-92325000D03*
D16*
X149370000Y-91750000D03*
D15*
X150640000Y-78475000D03*
D16*
X149370000Y-77780000D03*
%TD*%
D17*
%TO.C,D20*%
X116840000Y-102910000D03*
D16*
X116840000Y-104260000D03*
X116840000Y-106560000D03*
D17*
X116840000Y-107910000D03*
%TD*%
D12*
%TO.C,K01*%
X87060001Y-99390000D03*
D13*
X87060001Y-104470000D03*
D14*
X92140001Y-101930000D03*
X89600001Y-95580000D03*
X89600001Y-103200000D03*
D13*
X87060001Y-94310000D03*
D14*
X92140001Y-96850000D03*
D16*
X90870001Y-106375000D03*
D15*
X89600001Y-106950000D03*
X92140001Y-93100000D03*
D16*
X90870001Y-92405000D03*
%TD*%
D14*
%TO.C,K03*%
X92140000Y-62930001D03*
X92140000Y-57850001D03*
D13*
X87060000Y-65470001D03*
D12*
X87060000Y-60390001D03*
D13*
X87060000Y-55310001D03*
D14*
X89600000Y-56580001D03*
X89600000Y-64200001D03*
D15*
X89600000Y-67950001D03*
D16*
X90870000Y-67375001D03*
X90870000Y-53405001D03*
D15*
X92140000Y-54100001D03*
%TD*%
D12*
%TO.C,K42*%
X165060000Y-70140000D03*
D14*
X167600000Y-65060000D03*
X162520000Y-65060000D03*
D13*
X159980000Y-70140000D03*
X170140000Y-70140000D03*
D14*
X168870000Y-67600000D03*
X161250000Y-67600000D03*
D18*
X172620000Y-67600000D03*
D16*
X172045000Y-66330000D03*
X158075000Y-66330000D03*
D18*
X158770000Y-65060000D03*
%TD*%
D19*
%TO.C,LED2*%
X199696251Y-93609032D03*
X201296251Y-96380314D03*
X205539775Y-93930314D03*
X203939775Y-91159032D03*
%TD*%
D14*
%TO.C,K11*%
X109100000Y-89435000D03*
D12*
X106560000Y-94515000D03*
D14*
X104020000Y-89435000D03*
D13*
X111640000Y-94515000D03*
X101480000Y-94515000D03*
D14*
X110370000Y-91975000D03*
X102750000Y-91975000D03*
D18*
X114120000Y-91975000D03*
D16*
X113545000Y-90705000D03*
X99575000Y-90705000D03*
D18*
X100270000Y-89435000D03*
%TD*%
D20*
%TO.C,D32*%
X147280000Y-69850000D03*
D16*
X145930000Y-69850000D03*
X143630000Y-69850000D03*
D20*
X142280000Y-69850000D03*
%TD*%
D14*
%TO.C,K00*%
X89600000Y-115080000D03*
X92140000Y-121430000D03*
X89600000Y-122700000D03*
D13*
X87060000Y-123970000D03*
D14*
X92140000Y-116350000D03*
D12*
X87060000Y-118890000D03*
D13*
X87060000Y-113810000D03*
D16*
X90870000Y-125875000D03*
D15*
X89600000Y-126450000D03*
D16*
X90870000Y-111905000D03*
D15*
X92140000Y-112600000D03*
%TD*%
D14*
%TO.C,K60*%
X204214279Y-123604072D03*
X206522608Y-121949950D03*
X199782721Y-118394908D03*
D12*
X204337679Y-117925800D03*
D13*
X208830937Y-120295828D03*
D14*
X199721022Y-121234044D03*
D13*
X199844421Y-115555772D03*
D16*
X196381928Y-118036954D03*
D21*
X196465848Y-116645379D03*
D16*
X208738387Y-124554532D03*
D21*
X207531153Y-125353601D03*
%TD*%
D14*
%TO.C,K32*%
X143020000Y-60185001D03*
X141750000Y-62725001D03*
D13*
X150640000Y-65265001D03*
D14*
X149370000Y-62725001D03*
X148100000Y-60185001D03*
D12*
X145560000Y-65265001D03*
D13*
X140480000Y-65265001D03*
D18*
X153120000Y-62725001D03*
D16*
X152545000Y-61455001D03*
X138575000Y-61455001D03*
D18*
X139270000Y-60185001D03*
%TD*%
D14*
%TO.C,K10*%
X104020000Y-108935000D03*
D13*
X101480000Y-114015000D03*
D14*
X102750000Y-111475000D03*
D12*
X106560000Y-114015000D03*
D14*
X109100000Y-108935000D03*
D13*
X111640000Y-114015000D03*
D14*
X110370000Y-111475000D03*
D16*
X113545000Y-110205000D03*
D18*
X114120000Y-111475000D03*
D16*
X99575000Y-110205000D03*
D18*
X100270000Y-108935000D03*
%TD*%
D12*
%TO.C,K43*%
X165060000Y-50640000D03*
D14*
X167600000Y-55720000D03*
X162520000Y-55720000D03*
D13*
X159980000Y-50640000D03*
D14*
X168870000Y-53180000D03*
D13*
X170140000Y-50640000D03*
D14*
X161250000Y-53180000D03*
D16*
X158075000Y-54450000D03*
D18*
X157500000Y-53180000D03*
D16*
X172045000Y-54450000D03*
D18*
X171350000Y-55720000D03*
%TD*%
D19*
%TO.C,LED3*%
X197089113Y-87682453D03*
X198689113Y-90453735D03*
X202932637Y-88003735D03*
X201332637Y-85232453D03*
%TD*%
D16*
%TO.C,D10*%
X107830000Y-104140000D03*
D20*
X109180000Y-104140000D03*
X104180000Y-104140000D03*
D16*
X105530000Y-104140000D03*
%TD*%
%TO.C,D11*%
X107830000Y-83820000D03*
D20*
X109180000Y-83820000D03*
D16*
X105530000Y-83820000D03*
D20*
X104180000Y-83820000D03*
%TD*%
D17*
%TO.C,D03*%
X96520000Y-67270000D03*
D16*
X96520000Y-65920000D03*
D17*
X96520000Y-62270000D03*
D16*
X96520000Y-63620000D03*
%TD*%
D14*
%TO.C,K21*%
X123520000Y-93450000D03*
X120980000Y-92180000D03*
D13*
X126060000Y-94720000D03*
D14*
X120980000Y-87100000D03*
D12*
X126060000Y-89640000D03*
D13*
X126060000Y-84560000D03*
D14*
X123520000Y-85830000D03*
D15*
X123520000Y-82080000D03*
D16*
X122250000Y-82655000D03*
X122250000Y-96625000D03*
D15*
X120980000Y-95930000D03*
%TD*%
D16*
%TO.C,D40*%
X166250000Y-99060000D03*
D20*
X167600000Y-99060000D03*
X162600000Y-99060000D03*
D16*
X163950000Y-99060000D03*
%TD*%
D14*
%TO.C,K50*%
X188370000Y-106600000D03*
D12*
X184560000Y-109140000D03*
D13*
X189640000Y-109140000D03*
D14*
X180750000Y-106600000D03*
X182020000Y-104060000D03*
X187100000Y-104060000D03*
D13*
X179480000Y-109140000D03*
D16*
X191545000Y-105330000D03*
D18*
X192120000Y-106600000D03*
D16*
X177575000Y-105330000D03*
D18*
X178270000Y-104060000D03*
%TD*%
D14*
%TO.C,K33*%
X149370000Y-48305000D03*
D13*
X150640000Y-45765000D03*
X140480000Y-45765000D03*
D14*
X143020000Y-50845000D03*
X148100000Y-50845000D03*
X141750000Y-48305000D03*
D12*
X145560000Y-45765000D03*
D18*
X138000000Y-48305000D03*
D16*
X138575000Y-49575000D03*
X152545000Y-49575000D03*
D18*
X151850000Y-50845000D03*
%TD*%
D22*
%TO.C,C2*%
X198589452Y-103974250D03*
X200386454Y-102936750D03*
%TD*%
D20*
%TO.C,D13*%
X109180000Y-64770000D03*
D16*
X107830000Y-64770000D03*
D20*
X104180000Y-64770000D03*
D16*
X105530000Y-64770000D03*
%TD*%
D12*
%TO.C,K61*%
X219815687Y-131116682D03*
D14*
X215282206Y-130472285D03*
D13*
X216027487Y-127732019D03*
X223603887Y-134501345D03*
D14*
X214536924Y-133212550D03*
X220964505Y-135549279D03*
X218325124Y-136597213D03*
D16*
X212068415Y-129303920D03*
D23*
X212485798Y-127973764D03*
D16*
X222485965Y-138611743D03*
D23*
X221121531Y-139095734D03*
%TD*%
D20*
%TO.C,D61*%
X196255000Y-139065000D03*
D16*
X197605000Y-139065000D03*
X199905000Y-139065000D03*
D20*
X201255000Y-139065000D03*
%TD*%
%TO.C,D12*%
X109180000Y-80010000D03*
D16*
X107830000Y-80010000D03*
D20*
X104180000Y-80010000D03*
D16*
X105530000Y-80010000D03*
%TD*%
%TO.C,D02*%
X96520000Y-81160000D03*
D17*
X96520000Y-82510000D03*
D16*
X96520000Y-78860000D03*
D17*
X96520000Y-77510000D03*
%TD*%
D20*
%TO.C,D22*%
X128230000Y-74930000D03*
D16*
X126880000Y-74930000D03*
X124580000Y-74930000D03*
D20*
X123230000Y-74930000D03*
%TD*%
D19*
%TO.C,LED4*%
X194688238Y-81669359D03*
X196288238Y-84440641D03*
X200531762Y-81990641D03*
X198931762Y-79219359D03*
%TD*%
D14*
%TO.C,K51*%
X182020000Y-94720000D03*
D13*
X189640000Y-89640000D03*
D14*
X188370000Y-92180000D03*
X180750000Y-92180000D03*
D12*
X184560000Y-89640000D03*
D13*
X179480000Y-89640000D03*
D14*
X187100000Y-94720000D03*
D18*
X177000000Y-92180000D03*
D16*
X177575000Y-93450000D03*
X191545000Y-93450000D03*
D18*
X190850000Y-94720000D03*
%TD*%
D17*
%TO.C,D00*%
X96520000Y-116880000D03*
D16*
X96520000Y-118230000D03*
D17*
X96520000Y-121880000D03*
D16*
X96520000Y-120530000D03*
%TD*%
D17*
%TO.C,D21*%
X116840000Y-82590000D03*
D16*
X116840000Y-83940000D03*
X116840000Y-86240000D03*
D17*
X116840000Y-87590000D03*
%TD*%
D13*
%TO.C,K22*%
X131140000Y-70140000D03*
D14*
X122250000Y-67600000D03*
D13*
X120980000Y-70140000D03*
D14*
X128600000Y-65060000D03*
X123520000Y-65060000D03*
D12*
X126060000Y-70140000D03*
D14*
X129870000Y-67600000D03*
D18*
X133620000Y-67600000D03*
D16*
X133045000Y-66330000D03*
X119075000Y-66330000D03*
D18*
X119770000Y-65060000D03*
%TD*%
D19*
%TO.C,LED1*%
X202506538Y-99442023D03*
X204106538Y-102213305D03*
X208350062Y-99763305D03*
X206750062Y-96992023D03*
%TD*%
D20*
%TO.C,D43*%
X167600000Y-59690000D03*
D16*
X166250000Y-59690000D03*
X163950000Y-59690000D03*
D20*
X162600000Y-59690000D03*
%TD*%
D16*
%TO.C,D51*%
X184270000Y-78740000D03*
D20*
X182920000Y-78740000D03*
X187920000Y-78740000D03*
D16*
X186570000Y-78740000D03*
%TD*%
D12*
%TO.C,K53*%
X184560000Y-50640000D03*
D13*
X179480000Y-50640000D03*
D14*
X187100000Y-55720000D03*
X182020000Y-55720000D03*
D13*
X189640000Y-50640000D03*
D14*
X188370000Y-53180000D03*
X180750000Y-53180000D03*
D18*
X177000000Y-53180000D03*
D16*
X177575000Y-54450000D03*
X191545000Y-54450000D03*
D18*
X190850000Y-55720000D03*
%TD*%
D24*
%TO.C,C1*%
X193937774Y-102243022D03*
X192900274Y-100446020D03*
%TD*%
D20*
%TO.C,D52*%
X182060000Y-74930000D03*
D16*
X183410000Y-74930000D03*
X185710000Y-74930000D03*
D20*
X187060000Y-74930000D03*
%TD*%
D17*
%TO.C,D30*%
X154940000Y-95290000D03*
D16*
X154940000Y-96640000D03*
D17*
X154940000Y-100290000D03*
D16*
X154940000Y-98940000D03*
%TD*%
D20*
%TO.C,D60*%
X196215000Y-142875000D03*
D16*
X197565000Y-142875000D03*
D20*
X201215000Y-142875000D03*
D16*
X199865000Y-142875000D03*
%TD*%
D12*
%TO.C,K20*%
X126060000Y-109140000D03*
D14*
X120980000Y-111680000D03*
X120980000Y-106600000D03*
X123520000Y-112950000D03*
D13*
X126060000Y-104060000D03*
X126060000Y-114220000D03*
D14*
X123520000Y-105330000D03*
D16*
X122250000Y-102155000D03*
D15*
X123520000Y-101580000D03*
X120980000Y-115430000D03*
D16*
X122250000Y-116125000D03*
%TD*%
D12*
%TO.C,K30*%
X145560000Y-104265000D03*
D14*
X148100000Y-100455000D03*
X148100000Y-108075000D03*
D13*
X145560000Y-109345000D03*
X145560000Y-99185000D03*
D14*
X150640000Y-106805000D03*
X150640000Y-101725000D03*
D16*
X149370000Y-111250000D03*
D15*
X148100000Y-111825000D03*
D16*
X149370000Y-97280000D03*
D15*
X150640000Y-97975000D03*
%TD*%
D16*
%TO.C,D23*%
X128150000Y-59690000D03*
D20*
X129500000Y-59690000D03*
D16*
X125850000Y-59690000D03*
D20*
X124500000Y-59690000D03*
%TD*%
D25*
%TO.C,L1*%
X194189471Y-96328257D03*
X195964823Y-95303257D03*
%TD*%
D20*
%TO.C,D50*%
X180380000Y-99060000D03*
D16*
X181730000Y-99060000D03*
X184030000Y-99060000D03*
D20*
X185380000Y-99060000D03*
%TD*%
%TO.C,D53*%
X181650000Y-60960000D03*
D16*
X183000000Y-60960000D03*
X185300000Y-60960000D03*
D20*
X186650000Y-60960000D03*
%TD*%
D19*
%TO.C,LED0*%
X205516622Y-105174466D03*
X207116622Y-107945748D03*
X211360146Y-105495748D03*
X209760146Y-102724466D03*
%TD*%
D26*
%TO.C,Boost1*%
X195751222Y-99383292D03*
X196226222Y-100206016D03*
X196701222Y-101028740D03*
D27*
X198779682Y-99828740D03*
X197829682Y-98183292D03*
%TD*%
D14*
%TO.C,K40*%
X161250000Y-106600000D03*
X167600000Y-104060000D03*
D12*
X165060000Y-109140000D03*
D14*
X162520000Y-104060000D03*
D13*
X159980000Y-109140000D03*
X170140000Y-109140000D03*
D14*
X168870000Y-106600000D03*
D18*
X172620000Y-106600000D03*
D16*
X172045000Y-105330000D03*
D18*
X158770000Y-104060000D03*
D16*
X158075000Y-105330000D03*
%TD*%
D28*
%TO.C,Nice!NanoV2*%
X166370000Y-140335000D03*
X166370000Y-122555000D03*
X166370000Y-120015000D03*
X166370000Y-125095000D03*
D29*
X184150000Y-135255000D03*
X168910000Y-132715000D03*
D28*
X166370000Y-142875000D03*
D30*
X186690000Y-140335000D03*
D29*
X168910000Y-140335000D03*
D28*
X166370000Y-127635000D03*
X166370000Y-135255000D03*
D29*
X184150000Y-114935000D03*
D31*
X168910000Y-114935000D03*
D29*
X184150000Y-132715000D03*
X184150000Y-140335000D03*
X168910000Y-130175000D03*
X184150000Y-127635000D03*
X184150000Y-142875000D03*
X168910000Y-120015000D03*
D28*
X166370000Y-130175000D03*
D30*
X186690000Y-117475000D03*
D28*
X166370000Y-114935000D03*
D29*
X168910000Y-122555000D03*
X168910000Y-137795000D03*
D30*
X186690000Y-125095000D03*
D29*
X184150000Y-117475000D03*
X184150000Y-137795000D03*
D30*
X186690000Y-127635000D03*
X186690000Y-120015000D03*
X186690000Y-114935000D03*
X186690000Y-132715000D03*
D28*
X166370000Y-137795000D03*
D29*
X168910000Y-135255000D03*
D30*
X186690000Y-130175000D03*
D29*
X184150000Y-120015000D03*
D30*
X186690000Y-122555000D03*
D29*
X184150000Y-130175000D03*
D30*
X186690000Y-142875000D03*
D29*
X168910000Y-125095000D03*
D30*
X186659556Y-137789746D03*
D28*
X166370000Y-132715000D03*
D29*
X168910000Y-127635000D03*
X184150000Y-122555000D03*
X184150000Y-125095000D03*
D28*
X166370000Y-117475000D03*
D29*
X168910000Y-117475000D03*
D30*
X186690000Y-135255000D03*
D29*
X168910000Y-142875000D03*
D32*
X165070000Y-114935000D03*
X165070000Y-117475000D03*
X165070000Y-120015000D03*
X165070000Y-122555000D03*
X165070000Y-125095000D03*
X165070000Y-127635000D03*
X165070000Y-130175000D03*
X165070000Y-132715000D03*
X165070000Y-135255000D03*
X165070000Y-137795000D03*
X165070000Y-140335000D03*
X165070000Y-142875000D03*
D33*
X187990000Y-142875000D03*
X187990000Y-140335000D03*
X187959556Y-137789746D03*
X187990000Y-135255000D03*
X187990000Y-132715000D03*
X187990000Y-130175000D03*
X187990000Y-127635000D03*
X187990000Y-125095000D03*
X187990000Y-122555000D03*
X187990000Y-120015000D03*
X187990000Y-117475000D03*
X187990000Y-114935000D03*
%TD*%
D14*
%TO.C,K52*%
X187100000Y-65059999D03*
X180750000Y-67599999D03*
D13*
X189640000Y-70139999D03*
D12*
X184560000Y-70139999D03*
D13*
X179480000Y-70139999D03*
D14*
X182020000Y-65059999D03*
X188370000Y-67599999D03*
D18*
X192120000Y-67599999D03*
D16*
X191545000Y-66329999D03*
X177575000Y-66329999D03*
D18*
X178270000Y-65059999D03*
%TD*%
D20*
%TO.C,D41*%
X167600000Y-78740000D03*
D16*
X166250000Y-78740000D03*
D20*
X162600000Y-78740000D03*
D16*
X163950000Y-78740000D03*
%TD*%
%TO.C,D42*%
X166885000Y-74930000D03*
D20*
X168235000Y-74930000D03*
X163235000Y-74930000D03*
D16*
X164585000Y-74930000D03*
%TD*%
D14*
%TO.C,K02*%
X92140000Y-77350000D03*
X89600000Y-83700000D03*
D13*
X87060000Y-84970000D03*
X87060000Y-74810000D03*
D14*
X89600000Y-76080000D03*
D12*
X87060000Y-79890000D03*
D14*
X92140000Y-82430000D03*
D16*
X90870000Y-86875000D03*
D15*
X89600000Y-87450000D03*
D16*
X90870000Y-72905000D03*
D15*
X92140000Y-73600000D03*
%TD*%
D14*
%TO.C,K13*%
X104020000Y-60595000D03*
X102750000Y-58055000D03*
D13*
X101480000Y-55515000D03*
D14*
X110370000Y-58055000D03*
D13*
X111640000Y-55515000D03*
D12*
X106560000Y-55515000D03*
D14*
X109100000Y-60595000D03*
D18*
X99000000Y-58055000D03*
D16*
X99575000Y-59325000D03*
X113545000Y-59325000D03*
D18*
X112850000Y-60595000D03*
%TD*%
D13*
%TO.C,K23*%
X120980000Y-50640000D03*
D14*
X123520000Y-55720000D03*
X122250000Y-53180000D03*
X129870000Y-53180000D03*
D13*
X131140000Y-50640000D03*
D14*
X128600000Y-55720000D03*
D12*
X126060000Y-50640000D03*
D18*
X118500000Y-53180000D03*
D16*
X119075000Y-54450000D03*
D18*
X132350000Y-55720000D03*
D16*
X133045000Y-54450000D03*
%TD*%
%TO.C,D01*%
X96520000Y-99180000D03*
D17*
X96520000Y-97830000D03*
X96520000Y-102830000D03*
D16*
X96520000Y-101480000D03*
%TD*%
D13*
%TO.C,K41*%
X170140000Y-89640000D03*
X159980000Y-89640000D03*
D12*
X165060000Y-89640000D03*
D14*
X168870000Y-87100000D03*
X167600000Y-84560000D03*
X162520000Y-84560000D03*
X161250000Y-87100000D03*
D16*
X172045000Y-85830000D03*
D18*
X172620000Y-87100000D03*
X158770000Y-84560000D03*
D16*
X158075000Y-85830000D03*
%TD*%
D13*
%TO.C,K12*%
X101480000Y-75015000D03*
D14*
X109100000Y-69935000D03*
D13*
X111640000Y-75015000D03*
D12*
X106560000Y-75015000D03*
D14*
X104020000Y-69935000D03*
X110370000Y-72475000D03*
X102750000Y-72475000D03*
D16*
X113545000Y-71205000D03*
D18*
X114120000Y-72475000D03*
X100270000Y-69935000D03*
D16*
X99575000Y-71205000D03*
%TD*%
D34*
%TO.C,LvlShft1*%
X199082616Y-108458435D03*
X199557616Y-109281159D03*
X200032616Y-110103883D03*
X202370884Y-108753883D03*
X201895884Y-107931159D03*
X201420884Y-107108435D03*
%TD*%
D16*
%TO.C,D31*%
X154940000Y-77590000D03*
D17*
X154940000Y-76240000D03*
D16*
X154940000Y-79890000D03*
D17*
X154940000Y-81240000D03*
%TD*%
D20*
%TO.C,D33*%
X148550000Y-55880000D03*
D16*
X147200000Y-55880000D03*
D20*
X143550000Y-55880000D03*
D16*
X144900000Y-55880000D03*
%TD*%
D35*
%TO.C,Reset1*%
X195505000Y-130465000D03*
X202005000Y-130465000D03*
X195505000Y-134965000D03*
X202005000Y-134965000D03*
%TD*%
D36*
%TO.C,BatteryJmp1*%
X150642352Y-132080000D03*
D14*
X150642352Y-137160000D03*
%TD*%
M02*
