%TF.GenerationSoftware,KiCad,Pcbnew,6.0.5-a6ca702e91~116~ubuntu22.04.1*%
%TF.CreationDate,2022-05-20T13:25:00-05:00*%
%TF.ProjectId,board,626f6172-642e-46b6-9963-61645f706362,rev?*%
%TF.SameCoordinates,Original*%
%TF.FileFunction,Soldermask,Bot*%
%TF.FilePolarity,Negative*%
%FSLAX46Y46*%
G04 Gerber Fmt 4.6, Leading zero omitted, Abs format (unit mm)*
G04 Created by KiCad (PCBNEW 6.0.5-a6ca702e91~116~ubuntu22.04.1) date 2022-05-20 13:25:00*
%MOMM*%
%LPD*%
G01*
G04 APERTURE LIST*
G04 Aperture macros list*
%AMRotRect*
0 Rectangle, with rotation*
0 The origin of the aperture is its center*
0 $1 length*
0 $2 width*
0 $3 Rotation angle, in degrees counterclockwise*
0 Add horizontal line*
21,1,$1,$2,0,0,$3*%
G04 Aperture macros list end*
%ADD10C,0.600000*%
%ADD11R,2.700000X1.700000*%
%ADD12RotRect,2.700000X1.700000X330.000000*%
%ADD13RotRect,1.500000X1.000000X210.000000*%
%ADD14O,1.600000X1.600000*%
%ADD15R,1.600000X1.600000*%
%ADD16C,2.000000*%
%ADD17RotRect,2.550000X2.500000X138.220000*%
%ADD18C,3.000000*%
%ADD19C,3.987800*%
%ADD20C,1.701800*%
%ADD21RotRect,2.550000X2.500000X152.190000*%
%ADD22R,2.550000X2.500000*%
%ADD23R,3.000000X3.000000*%
%ADD24C,2.110000*%
%ADD25C,1.700000*%
G04 APERTURE END LIST*
D10*
%TO.C,D20*%
X128150000Y-99060000D03*
D11*
X129500000Y-99060000D03*
D10*
X125850000Y-99060000D03*
D11*
X124500000Y-99060000D03*
%TD*%
D10*
%TO.C,D61*%
X219984071Y-123885000D03*
D12*
X218814936Y-123210000D03*
D10*
X221975929Y-125035000D03*
D12*
X223145064Y-125710000D03*
%TD*%
D10*
%TO.C,D60*%
X207284071Y-113360000D03*
D12*
X206114936Y-112685000D03*
D10*
X209275929Y-114510000D03*
D12*
X210445064Y-115185000D03*
%TD*%
D10*
%TO.C,D53*%
X183000000Y-60960000D03*
D11*
X181650000Y-60960000D03*
D10*
X185300000Y-60960000D03*
D11*
X186650000Y-60960000D03*
%TD*%
D10*
%TO.C,D52*%
X183410000Y-74930000D03*
D11*
X182060000Y-74930000D03*
D10*
X185710000Y-74930000D03*
D11*
X187060000Y-74930000D03*
%TD*%
D10*
%TO.C,D51*%
X184270000Y-78740000D03*
D11*
X182920000Y-78740000D03*
D10*
X186570000Y-78740000D03*
D11*
X187920000Y-78740000D03*
%TD*%
D10*
%TO.C,D50*%
X181730000Y-99060000D03*
D11*
X180380000Y-99060000D03*
D10*
X184030000Y-99060000D03*
D11*
X185380000Y-99060000D03*
%TD*%
D10*
%TO.C,D43*%
X166250000Y-59690000D03*
D11*
X167600000Y-59690000D03*
D10*
X163950000Y-59690000D03*
D11*
X162600000Y-59690000D03*
%TD*%
D10*
%TO.C,D42*%
X166885000Y-74930000D03*
D11*
X168235000Y-74930000D03*
D10*
X164585000Y-74930000D03*
D11*
X163235000Y-74930000D03*
%TD*%
D10*
%TO.C,D41*%
X166250000Y-78740000D03*
D11*
X167600000Y-78740000D03*
D10*
X163950000Y-78740000D03*
D11*
X162600000Y-78740000D03*
%TD*%
D10*
%TO.C,D40*%
X166250000Y-99060000D03*
D11*
X167600000Y-99060000D03*
D10*
X163950000Y-99060000D03*
D11*
X162600000Y-99060000D03*
%TD*%
D10*
%TO.C,D33*%
X147200000Y-55880000D03*
D11*
X148550000Y-55880000D03*
D10*
X144900000Y-55880000D03*
D11*
X143550000Y-55880000D03*
%TD*%
D10*
%TO.C,D32*%
X145930000Y-69850000D03*
D11*
X147280000Y-69850000D03*
D10*
X143630000Y-69850000D03*
D11*
X142280000Y-69850000D03*
%TD*%
D10*
%TO.C,D31*%
X148470000Y-73660000D03*
D11*
X149820000Y-73660000D03*
D10*
X146170000Y-73660000D03*
D11*
X144820000Y-73660000D03*
%TD*%
D10*
%TO.C,D30*%
X145930000Y-93980000D03*
D11*
X147280000Y-93980000D03*
D10*
X143630000Y-93980000D03*
D11*
X142280000Y-93980000D03*
%TD*%
D10*
%TO.C,D23*%
X128150000Y-59690000D03*
D11*
X129500000Y-59690000D03*
D10*
X125850000Y-59690000D03*
D11*
X124500000Y-59690000D03*
%TD*%
D10*
%TO.C,D22*%
X126880000Y-74930000D03*
D11*
X128230000Y-74930000D03*
D10*
X124580000Y-74930000D03*
D11*
X123230000Y-74930000D03*
%TD*%
D10*
%TO.C,D21*%
X128150000Y-78740000D03*
D11*
X129500000Y-78740000D03*
D10*
X125850000Y-78740000D03*
D11*
X124500000Y-78740000D03*
%TD*%
D10*
%TO.C,D13*%
X107830000Y-64770000D03*
D11*
X109180000Y-64770000D03*
D10*
X105530000Y-64770000D03*
D11*
X104180000Y-64770000D03*
%TD*%
D10*
%TO.C,D12*%
X107830000Y-80010000D03*
D11*
X109180000Y-80010000D03*
D10*
X105530000Y-80010000D03*
D11*
X104180000Y-80010000D03*
%TD*%
D10*
%TO.C,D11*%
X107830000Y-83820000D03*
D11*
X109180000Y-83820000D03*
D10*
X105530000Y-83820000D03*
D11*
X104180000Y-83820000D03*
%TD*%
D10*
%TO.C,D10*%
X107830000Y-104140000D03*
D11*
X109180000Y-104140000D03*
D10*
X105530000Y-104140000D03*
D11*
X104180000Y-104140000D03*
%TD*%
D10*
%TO.C,D03*%
X88780000Y-69850000D03*
D11*
X90130000Y-69850000D03*
D10*
X86480000Y-69850000D03*
D11*
X85130000Y-69850000D03*
%TD*%
D10*
%TO.C,D02*%
X87510000Y-85090000D03*
D11*
X88860000Y-85090000D03*
D10*
X85210000Y-85090000D03*
D11*
X83860000Y-85090000D03*
%TD*%
D10*
%TO.C,D01*%
X90050000Y-88900000D03*
D11*
X91400000Y-88900000D03*
D10*
X87750000Y-88900000D03*
D11*
X86400000Y-88900000D03*
%TD*%
D10*
%TO.C,D00*%
X87510000Y-109220000D03*
D11*
X88860000Y-109220000D03*
D10*
X85210000Y-109220000D03*
D11*
X83860000Y-109220000D03*
%TD*%
D13*
%TO.C,LED2*%
X203939775Y-91159032D03*
X205539775Y-93930314D03*
X201296251Y-96380314D03*
X199696251Y-93609032D03*
%TD*%
%TO.C,LED1*%
X206750062Y-96992023D03*
X208350062Y-99763305D03*
X204106538Y-102213305D03*
X202506538Y-99442023D03*
%TD*%
%TO.C,LED4*%
X194688238Y-81669359D03*
X196288238Y-84440641D03*
X200531762Y-81990641D03*
X198931762Y-79219359D03*
%TD*%
%TO.C,LED3*%
X201332637Y-85232453D03*
X202932637Y-88003735D03*
X198689113Y-90453735D03*
X197089113Y-87682453D03*
%TD*%
%TO.C,LED0*%
X209760146Y-102724468D03*
X211360146Y-105495750D03*
X207116622Y-107945750D03*
X205516622Y-105174468D03*
%TD*%
D14*
%TO.C,Nice!NanoV2*%
X180335000Y-143515000D03*
X180335000Y-140975000D03*
X180335000Y-138435000D03*
X180335000Y-135895000D03*
X180335000Y-133355000D03*
X180335000Y-130815000D03*
X180335000Y-128275000D03*
X180335000Y-125735000D03*
X180335000Y-123195000D03*
X180335000Y-120655000D03*
X180335000Y-118115000D03*
X180335000Y-115575000D03*
X165095000Y-115575000D03*
X165095000Y-118115000D03*
X165095000Y-120655000D03*
X165095000Y-123195000D03*
X165095000Y-125735000D03*
X165095000Y-128275000D03*
X165095000Y-130815000D03*
X165095000Y-133355000D03*
X165095000Y-135895000D03*
X165095000Y-138435000D03*
X165095000Y-140975000D03*
D15*
X165095000Y-143515000D03*
%TD*%
D16*
%TO.C,Reset1*%
X204620000Y-134620000D03*
X198120000Y-134620000D03*
X204620000Y-139120000D03*
X198120000Y-139120000D03*
%TD*%
D14*
%TO.C,Nice!NanoV2*%
X172725000Y-143515000D03*
X172725000Y-140975000D03*
X172725000Y-138435000D03*
X172725000Y-135895000D03*
X172725000Y-133355000D03*
X172725000Y-130815000D03*
X172725000Y-128275000D03*
X172725000Y-125735000D03*
X172725000Y-123195000D03*
X172725000Y-120655000D03*
X172725000Y-118115000D03*
X172725000Y-115575000D03*
X187965000Y-115575000D03*
X187965000Y-118115000D03*
X187965000Y-120655000D03*
X187965000Y-123195000D03*
X187965000Y-125735000D03*
X187965000Y-128275000D03*
X187965000Y-130815000D03*
X187965000Y-133355000D03*
X187965000Y-135895000D03*
X187965000Y-138435000D03*
X187965000Y-140975000D03*
D15*
X187965000Y-143515000D03*
%TD*%
D17*
%TO.C,K61*%
X211740517Y-130714030D03*
D18*
X214536924Y-133212550D03*
X220964505Y-135549279D03*
D19*
X219815687Y-131116682D03*
D20*
X216027487Y-127732019D03*
X223603887Y-134501345D03*
D17*
X223760913Y-138047800D03*
D18*
X218325124Y-136597213D03*
X215282206Y-130472285D03*
D10*
X222485965Y-138611743D03*
X212068415Y-129303920D03*
%TD*%
%TO.C,K60*%
X196381928Y-118036954D03*
X208738387Y-124554532D03*
D18*
X199782721Y-118394908D03*
X204214279Y-123604072D03*
D21*
X209839481Y-123699479D03*
D20*
X208830937Y-120295828D03*
X199844421Y-115555772D03*
D19*
X204337679Y-117925800D03*
D18*
X206522608Y-121949950D03*
X199721022Y-121234044D03*
D21*
X196404148Y-119484515D03*
%TD*%
D22*
%TO.C,K53*%
X178270000Y-55720000D03*
D18*
X182020000Y-55720000D03*
X188370000Y-53180000D03*
D19*
X184560000Y-50640000D03*
D20*
X179480000Y-50640000D03*
X189640000Y-50640000D03*
D22*
X192120000Y-53180000D03*
D18*
X187100000Y-55720000D03*
X180750000Y-53180000D03*
D10*
X191545000Y-54450000D03*
X177575000Y-54450000D03*
%TD*%
D22*
%TO.C,K52*%
X190850000Y-65060000D03*
D18*
X187100000Y-65060000D03*
X180750000Y-67600000D03*
D19*
X184560000Y-70140000D03*
D20*
X189640000Y-70140000D03*
X179480000Y-70140000D03*
D22*
X177000000Y-67600000D03*
D18*
X182020000Y-65060000D03*
X188370000Y-67600000D03*
D10*
X177575000Y-66330000D03*
X191545000Y-66330000D03*
%TD*%
D22*
%TO.C,K51*%
X178270000Y-94720000D03*
D18*
X182020000Y-94720000D03*
X188370000Y-92180000D03*
D19*
X184560000Y-89640000D03*
D20*
X179480000Y-89640000D03*
X189640000Y-89640000D03*
D22*
X192120000Y-92180000D03*
D18*
X187100000Y-94720000D03*
X180750000Y-92180000D03*
D10*
X191545000Y-93450000D03*
X177575000Y-93450000D03*
%TD*%
D22*
%TO.C,K50*%
X190850000Y-104060000D03*
D18*
X187100000Y-104060000D03*
X180750000Y-106600000D03*
D19*
X184560000Y-109140000D03*
D20*
X189640000Y-109140000D03*
X179480000Y-109140000D03*
D22*
X177000000Y-106600000D03*
D18*
X182020000Y-104060000D03*
X188370000Y-106600000D03*
D10*
X177575000Y-105330000D03*
X191545000Y-105330000D03*
%TD*%
D22*
%TO.C,K43*%
X158770000Y-55720000D03*
D18*
X162520000Y-55720000D03*
X168870000Y-53180000D03*
D19*
X165060000Y-50640000D03*
D20*
X159980000Y-50640000D03*
X170140000Y-50640000D03*
D22*
X172620000Y-53180000D03*
D18*
X167600000Y-55720000D03*
X161250000Y-53180000D03*
D10*
X172045000Y-54450000D03*
X158075000Y-54450000D03*
%TD*%
D22*
%TO.C,K42*%
X171350000Y-65060000D03*
D18*
X167600000Y-65060000D03*
X161250000Y-67600000D03*
D19*
X165060000Y-70140000D03*
D20*
X170140000Y-70140000D03*
X159980000Y-70140000D03*
D22*
X157500000Y-67600000D03*
D18*
X162520000Y-65060000D03*
X168870000Y-67600000D03*
D10*
X158075000Y-66330000D03*
X172045000Y-66330000D03*
%TD*%
D22*
%TO.C,K41*%
X171350000Y-84560000D03*
D18*
X167600000Y-84560000D03*
X161250000Y-87100000D03*
D19*
X165060000Y-89640000D03*
D20*
X170140000Y-89640000D03*
X159980000Y-89640000D03*
D22*
X157500000Y-87100000D03*
D18*
X162520000Y-84560000D03*
X168870000Y-87100000D03*
D10*
X158075000Y-85830000D03*
X172045000Y-85830000D03*
%TD*%
D22*
%TO.C,K40*%
X171350000Y-104060000D03*
D18*
X167600000Y-104060000D03*
X161250000Y-106600000D03*
D19*
X165060000Y-109140000D03*
D20*
X170140000Y-109140000D03*
X159980000Y-109140000D03*
D22*
X157500000Y-106600000D03*
D18*
X162520000Y-104060000D03*
X168870000Y-106600000D03*
D10*
X158075000Y-105330000D03*
X172045000Y-105330000D03*
%TD*%
D22*
%TO.C,K33*%
X139270000Y-50845000D03*
D18*
X143020000Y-50845000D03*
X149370000Y-48305000D03*
D19*
X145560000Y-45765000D03*
D20*
X140480000Y-45765000D03*
X150640000Y-45765000D03*
D22*
X153120000Y-48305000D03*
D18*
X148100000Y-50845000D03*
X141750000Y-48305000D03*
D10*
X152545000Y-49575000D03*
X138575000Y-49575000D03*
%TD*%
D22*
%TO.C,K32*%
X151850000Y-60185000D03*
D18*
X148100000Y-60185000D03*
X141750000Y-62725000D03*
D19*
X145560000Y-65265000D03*
D20*
X150640000Y-65265000D03*
X140480000Y-65265000D03*
D22*
X138000000Y-62725000D03*
D18*
X143020000Y-60185000D03*
X149370000Y-62725000D03*
D10*
X138575000Y-61455000D03*
X152545000Y-61455000D03*
%TD*%
D22*
%TO.C,K31*%
X151850000Y-79685000D03*
D18*
X148100000Y-79685000D03*
X141750000Y-82225000D03*
D19*
X145560000Y-84765000D03*
D20*
X150640000Y-84765000D03*
X140480000Y-84765000D03*
D22*
X138000000Y-82225000D03*
D18*
X143020000Y-79685000D03*
X149370000Y-82225000D03*
D10*
X138575000Y-80955000D03*
X152545000Y-80955000D03*
%TD*%
D22*
%TO.C,K30*%
X151850000Y-99185000D03*
D18*
X148100000Y-99185000D03*
X141750000Y-101725000D03*
D19*
X145560000Y-104265000D03*
D20*
X150640000Y-104265000D03*
X140480000Y-104265000D03*
D22*
X138000000Y-101725000D03*
D18*
X143020000Y-99185000D03*
X149370000Y-101725000D03*
D10*
X138575000Y-100455000D03*
X152545000Y-100455000D03*
%TD*%
D22*
%TO.C,K23*%
X119770000Y-55720000D03*
D18*
X123520000Y-55720000D03*
X129870000Y-53180000D03*
D19*
X126060000Y-50640000D03*
D20*
X120980000Y-50640000D03*
X131140000Y-50640000D03*
D22*
X133620000Y-53180000D03*
D18*
X128600000Y-55720000D03*
X122250000Y-53180000D03*
D10*
X133045000Y-54450000D03*
X119075000Y-54450000D03*
%TD*%
D22*
%TO.C,K22*%
X132350000Y-65060000D03*
D18*
X128600000Y-65060000D03*
X122250000Y-67600000D03*
D19*
X126060000Y-70140000D03*
D20*
X131140000Y-70140000D03*
X120980000Y-70140000D03*
D22*
X118500000Y-67600000D03*
D18*
X123520000Y-65060000D03*
X129870000Y-67600000D03*
D10*
X119075000Y-66330000D03*
X133045000Y-66330000D03*
%TD*%
D22*
%TO.C,K21*%
X132350000Y-84560000D03*
D18*
X128600000Y-84560000D03*
X122250000Y-87100000D03*
D19*
X126060000Y-89640000D03*
D20*
X131140000Y-89640000D03*
X120980000Y-89640000D03*
D22*
X118500000Y-87100000D03*
D18*
X123520000Y-84560000D03*
X129870000Y-87100000D03*
D10*
X119075000Y-85830000D03*
X133045000Y-85830000D03*
%TD*%
D22*
%TO.C,K20*%
X132350000Y-104060000D03*
D18*
X128600000Y-104060000D03*
X122250000Y-106600000D03*
D19*
X126060000Y-109140000D03*
D20*
X131140000Y-109140000D03*
X120980000Y-109140000D03*
D22*
X118500000Y-106600000D03*
D18*
X123520000Y-104060000D03*
X129870000Y-106600000D03*
D10*
X119075000Y-105330000D03*
X133045000Y-105330000D03*
%TD*%
D22*
%TO.C,K13*%
X100270000Y-60595000D03*
D18*
X104020000Y-60595000D03*
X110370000Y-58055000D03*
D19*
X106560000Y-55515000D03*
D20*
X101480000Y-55515000D03*
X111640000Y-55515000D03*
D22*
X114120000Y-58055000D03*
D18*
X109100000Y-60595000D03*
X102750000Y-58055000D03*
D10*
X113545000Y-59325000D03*
X99575000Y-59325000D03*
%TD*%
D22*
%TO.C,K12*%
X112850000Y-69935000D03*
D18*
X109100000Y-69935000D03*
X102750000Y-72475000D03*
D19*
X106560000Y-75015000D03*
D20*
X111640000Y-75015000D03*
X101480000Y-75015000D03*
D22*
X99000000Y-72475000D03*
D18*
X104020000Y-69935000D03*
X110370000Y-72475000D03*
D10*
X99575000Y-71205000D03*
X113545000Y-71205000D03*
%TD*%
D22*
%TO.C,K11*%
X112850000Y-89435000D03*
D18*
X109100000Y-89435000D03*
X102750000Y-91975000D03*
D19*
X106560000Y-94515000D03*
D20*
X111640000Y-94515000D03*
X101480000Y-94515000D03*
D22*
X99000000Y-91975000D03*
D18*
X104020000Y-89435000D03*
X110370000Y-91975000D03*
D10*
X99575000Y-90705000D03*
X113545000Y-90705000D03*
%TD*%
D22*
%TO.C,K10*%
X112850000Y-108935000D03*
D18*
X109100000Y-108935000D03*
X102750000Y-111475000D03*
D19*
X106560000Y-114015000D03*
D20*
X111640000Y-114015000D03*
X101480000Y-114015000D03*
D22*
X99000000Y-111475000D03*
D18*
X104020000Y-108935000D03*
X110370000Y-111475000D03*
D10*
X99575000Y-110205000D03*
X113545000Y-110205000D03*
%TD*%
D22*
%TO.C,K03*%
X80770000Y-65470000D03*
D18*
X84520000Y-65470000D03*
X90870000Y-62930000D03*
D19*
X87060000Y-60390000D03*
D20*
X81980000Y-60390000D03*
X92140000Y-60390000D03*
D22*
X94620000Y-62930000D03*
D18*
X89600000Y-65470000D03*
X83250000Y-62930000D03*
D10*
X94045000Y-64200000D03*
X80075000Y-64200000D03*
%TD*%
D22*
%TO.C,K02*%
X93350000Y-74810000D03*
D18*
X89600000Y-74810000D03*
X83250000Y-77350000D03*
D19*
X87060000Y-79890000D03*
D20*
X92140000Y-79890000D03*
X81980000Y-79890000D03*
D22*
X79500000Y-77350000D03*
D18*
X84520000Y-74810000D03*
X90870000Y-77350000D03*
D10*
X80075000Y-76080000D03*
X94045000Y-76080000D03*
%TD*%
D22*
%TO.C,K01*%
X93350000Y-94310000D03*
D18*
X89600000Y-94310000D03*
X83250000Y-96850000D03*
D19*
X87060000Y-99390000D03*
D20*
X92140000Y-99390000D03*
X81980000Y-99390000D03*
D22*
X79500000Y-96850000D03*
D18*
X84520000Y-94310000D03*
X90870000Y-96850000D03*
D10*
X80075000Y-95580000D03*
X94045000Y-95580000D03*
%TD*%
D22*
%TO.C,K00*%
X93350000Y-113810000D03*
D18*
X89600000Y-113810000D03*
X83250000Y-116350000D03*
D19*
X87060000Y-118890000D03*
D20*
X92140000Y-118890000D03*
X81980000Y-118890000D03*
D22*
X79500000Y-116350000D03*
D18*
X84520000Y-113810000D03*
X90870000Y-116350000D03*
D10*
X80075000Y-115080000D03*
X94045000Y-115080000D03*
%TD*%
D23*
%TO.C,BatteryJmp1*%
X139700000Y-121920000D03*
D18*
X139700000Y-116840000D03*
%TD*%
D24*
%TO.C,Battery1*%
X99872609Y-118555478D03*
D25*
X98138521Y-125027181D03*
X150781479Y-139132819D03*
%TD*%
M02*
