%TF.GenerationSoftware,KiCad,Pcbnew,6.0.5-a6ca702e91~116~ubuntu22.04.1*%
%TF.CreationDate,2022-05-20T13:25:00-05:00*%
%TF.ProjectId,board,626f6172-642e-46b6-9963-61645f706362,rev?*%
%TF.SameCoordinates,Original*%
%TF.FileFunction,Legend,Top*%
%TF.FilePolarity,Positive*%
%FSLAX46Y46*%
G04 Gerber Fmt 4.6, Leading zero omitted, Abs format (unit mm)*
G04 Created by KiCad (PCBNEW 6.0.5-a6ca702e91~116~ubuntu22.04.1) date 2022-05-20 13:25:00*
%MOMM*%
%LPD*%
G01*
G04 APERTURE LIST*
%ADD10C,0.150000*%
%ADD11C,0.120000*%
G04 APERTURE END LIST*
D10*
X144780000Y-116840000D02*
X144780000Y-117475000D01*
X146050000Y-116840000D02*
X144780000Y-116840000D01*
X146050000Y-115570000D02*
X146050000Y-116840000D01*
X146685000Y-115570000D02*
X146050000Y-115570000D01*
X146685000Y-116840000D02*
X146685000Y-115570000D01*
X147955000Y-116840000D02*
X146685000Y-116840000D01*
X147955000Y-117475000D02*
X147955000Y-116840000D01*
X146685000Y-117475000D02*
X147955000Y-117475000D01*
X146685000Y-118745000D02*
X146685000Y-117475000D01*
X146050000Y-118745000D02*
X146685000Y-118745000D01*
X146050000Y-117475000D02*
X146050000Y-118745000D01*
X144780000Y-117475000D02*
X146050000Y-117475000D01*
X147955000Y-121920000D02*
X144780000Y-121920000D01*
X147955000Y-122555000D02*
X147955000Y-121920000D01*
X144780000Y-122555000D02*
X147955000Y-122555000D01*
X144780000Y-121920000D02*
X144780000Y-122555000D01*
%TO.C,Reset1*%
X199655714Y-133072380D02*
X199322380Y-132596190D01*
X199084285Y-133072380D02*
X199084285Y-132072380D01*
X199465238Y-132072380D01*
X199560476Y-132120000D01*
X199608095Y-132167619D01*
X199655714Y-132262857D01*
X199655714Y-132405714D01*
X199608095Y-132500952D01*
X199560476Y-132548571D01*
X199465238Y-132596190D01*
X199084285Y-132596190D01*
X200465238Y-133024761D02*
X200370000Y-133072380D01*
X200179523Y-133072380D01*
X200084285Y-133024761D01*
X200036666Y-132929523D01*
X200036666Y-132548571D01*
X200084285Y-132453333D01*
X200179523Y-132405714D01*
X200370000Y-132405714D01*
X200465238Y-132453333D01*
X200512857Y-132548571D01*
X200512857Y-132643809D01*
X200036666Y-132739047D01*
X200893809Y-133024761D02*
X200989047Y-133072380D01*
X201179523Y-133072380D01*
X201274761Y-133024761D01*
X201322380Y-132929523D01*
X201322380Y-132881904D01*
X201274761Y-132786666D01*
X201179523Y-132739047D01*
X201036666Y-132739047D01*
X200941428Y-132691428D01*
X200893809Y-132596190D01*
X200893809Y-132548571D01*
X200941428Y-132453333D01*
X201036666Y-132405714D01*
X201179523Y-132405714D01*
X201274761Y-132453333D01*
X202131904Y-133024761D02*
X202036666Y-133072380D01*
X201846190Y-133072380D01*
X201750952Y-133024761D01*
X201703333Y-132929523D01*
X201703333Y-132548571D01*
X201750952Y-132453333D01*
X201846190Y-132405714D01*
X202036666Y-132405714D01*
X202131904Y-132453333D01*
X202179523Y-132548571D01*
X202179523Y-132643809D01*
X201703333Y-132739047D01*
X202465238Y-132405714D02*
X202846190Y-132405714D01*
X202608095Y-132072380D02*
X202608095Y-132929523D01*
X202655714Y-133024761D01*
X202750952Y-133072380D01*
X202846190Y-133072380D01*
X203703333Y-133072380D02*
X203131904Y-133072380D01*
X203417619Y-133072380D02*
X203417619Y-132072380D01*
X203322380Y-132215238D01*
X203227142Y-132310476D01*
X203131904Y-132358095D01*
%TO.C,Nice!NanoV2*%
X175940238Y-146297380D02*
X175940238Y-145297380D01*
X176511666Y-146297380D01*
X176511666Y-145297380D01*
X176987857Y-146297380D02*
X176987857Y-145630714D01*
X176987857Y-145297380D02*
X176940238Y-145345000D01*
X176987857Y-145392619D01*
X177035476Y-145345000D01*
X176987857Y-145297380D01*
X176987857Y-145392619D01*
X177892619Y-146249761D02*
X177797380Y-146297380D01*
X177606904Y-146297380D01*
X177511666Y-146249761D01*
X177464047Y-146202142D01*
X177416428Y-146106904D01*
X177416428Y-145821190D01*
X177464047Y-145725952D01*
X177511666Y-145678333D01*
X177606904Y-145630714D01*
X177797380Y-145630714D01*
X177892619Y-145678333D01*
X178702142Y-146249761D02*
X178606904Y-146297380D01*
X178416428Y-146297380D01*
X178321190Y-146249761D01*
X178273571Y-146154523D01*
X178273571Y-145773571D01*
X178321190Y-145678333D01*
X178416428Y-145630714D01*
X178606904Y-145630714D01*
X178702142Y-145678333D01*
X178749761Y-145773571D01*
X178749761Y-145868809D01*
X178273571Y-145964047D01*
X179178333Y-146202142D02*
X179225952Y-146249761D01*
X179178333Y-146297380D01*
X179130714Y-146249761D01*
X179178333Y-146202142D01*
X179178333Y-146297380D01*
X179178333Y-145916428D02*
X179130714Y-145345000D01*
X179178333Y-145297380D01*
X179225952Y-145345000D01*
X179178333Y-145916428D01*
X179178333Y-145297380D01*
X179654523Y-146297380D02*
X179654523Y-145297380D01*
X180225952Y-146297380D01*
X180225952Y-145297380D01*
X181130714Y-146297380D02*
X181130714Y-145773571D01*
X181083095Y-145678333D01*
X180987857Y-145630714D01*
X180797380Y-145630714D01*
X180702142Y-145678333D01*
X181130714Y-146249761D02*
X181035476Y-146297380D01*
X180797380Y-146297380D01*
X180702142Y-146249761D01*
X180654523Y-146154523D01*
X180654523Y-146059285D01*
X180702142Y-145964047D01*
X180797380Y-145916428D01*
X181035476Y-145916428D01*
X181130714Y-145868809D01*
X181606904Y-145630714D02*
X181606904Y-146297380D01*
X181606904Y-145725952D02*
X181654523Y-145678333D01*
X181749761Y-145630714D01*
X181892619Y-145630714D01*
X181987857Y-145678333D01*
X182035476Y-145773571D01*
X182035476Y-146297380D01*
X182654523Y-146297380D02*
X182559285Y-146249761D01*
X182511666Y-146202142D01*
X182464047Y-146106904D01*
X182464047Y-145821190D01*
X182511666Y-145725952D01*
X182559285Y-145678333D01*
X182654523Y-145630714D01*
X182797380Y-145630714D01*
X182892619Y-145678333D01*
X182940238Y-145725952D01*
X182987857Y-145821190D01*
X182987857Y-146106904D01*
X182940238Y-146202142D01*
X182892619Y-146249761D01*
X182797380Y-146297380D01*
X182654523Y-146297380D01*
X183273571Y-145297380D02*
X183606904Y-146297380D01*
X183940238Y-145297380D01*
X184225952Y-145392619D02*
X184273571Y-145345000D01*
X184368809Y-145297380D01*
X184606904Y-145297380D01*
X184702142Y-145345000D01*
X184749761Y-145392619D01*
X184797380Y-145487857D01*
X184797380Y-145583095D01*
X184749761Y-145725952D01*
X184178333Y-146297380D01*
X184797380Y-146297380D01*
%TO.C,LevelShift1*%
X198285238Y-105602378D02*
X197809047Y-105602378D01*
X197809047Y-104602378D01*
X198999523Y-105554759D02*
X198904285Y-105602378D01*
X198713809Y-105602378D01*
X198618571Y-105554759D01*
X198570952Y-105459521D01*
X198570952Y-105078569D01*
X198618571Y-104983331D01*
X198713809Y-104935712D01*
X198904285Y-104935712D01*
X198999523Y-104983331D01*
X199047142Y-105078569D01*
X199047142Y-105173807D01*
X198570952Y-105269045D01*
X199380476Y-104935712D02*
X199618571Y-105602378D01*
X199856666Y-104935712D01*
X200618571Y-105554759D02*
X200523333Y-105602378D01*
X200332857Y-105602378D01*
X200237619Y-105554759D01*
X200190000Y-105459521D01*
X200190000Y-105078569D01*
X200237619Y-104983331D01*
X200332857Y-104935712D01*
X200523333Y-104935712D01*
X200618571Y-104983331D01*
X200666190Y-105078569D01*
X200666190Y-105173807D01*
X200190000Y-105269045D01*
X201237619Y-105602378D02*
X201142380Y-105554759D01*
X201094761Y-105459521D01*
X201094761Y-104602378D01*
X201570952Y-105554759D02*
X201713809Y-105602378D01*
X201951904Y-105602378D01*
X202047142Y-105554759D01*
X202094761Y-105507140D01*
X202142380Y-105411902D01*
X202142380Y-105316664D01*
X202094761Y-105221426D01*
X202047142Y-105173807D01*
X201951904Y-105126188D01*
X201761428Y-105078569D01*
X201666190Y-105030950D01*
X201618571Y-104983331D01*
X201570952Y-104888093D01*
X201570952Y-104792855D01*
X201618571Y-104697617D01*
X201666190Y-104649998D01*
X201761428Y-104602378D01*
X201999523Y-104602378D01*
X202142380Y-104649998D01*
X202570952Y-105602378D02*
X202570952Y-104602378D01*
X202999523Y-105602378D02*
X202999523Y-105078569D01*
X202951904Y-104983331D01*
X202856666Y-104935712D01*
X202713809Y-104935712D01*
X202618571Y-104983331D01*
X202570952Y-105030950D01*
X203475714Y-105602378D02*
X203475714Y-104935712D01*
X203475714Y-104602378D02*
X203428095Y-104649998D01*
X203475714Y-104697617D01*
X203523333Y-104649998D01*
X203475714Y-104602378D01*
X203475714Y-104697617D01*
X203809047Y-104935712D02*
X204190000Y-104935712D01*
X203951904Y-105602378D02*
X203951904Y-104745236D01*
X203999523Y-104649998D01*
X204094761Y-104602378D01*
X204190000Y-104602378D01*
X204380476Y-104935712D02*
X204761428Y-104935712D01*
X204523333Y-104602378D02*
X204523333Y-105459521D01*
X204570952Y-105554759D01*
X204666190Y-105602378D01*
X204761428Y-105602378D01*
X205618571Y-105602378D02*
X205047142Y-105602378D01*
X205332857Y-105602378D02*
X205332857Y-104602378D01*
X205237619Y-104745236D01*
X205142380Y-104840474D01*
X205047142Y-104888093D01*
%TO.C,LED4*%
X195117066Y-79750208D02*
X194704673Y-79988303D01*
X194204673Y-79122278D01*
X195143837Y-79129909D02*
X195432512Y-78963242D01*
X195818134Y-79345446D02*
X195405741Y-79583541D01*
X194905741Y-78717516D01*
X195318134Y-78479420D01*
X196189288Y-79131160D02*
X195689288Y-78265135D01*
X195895485Y-78146087D01*
X196043012Y-78115898D01*
X196173110Y-78150757D01*
X196261968Y-78209426D01*
X196398446Y-78350574D01*
X196469874Y-78474292D01*
X196523873Y-78663059D01*
X196530253Y-78769347D01*
X196495393Y-78899445D01*
X196395485Y-79012112D01*
X196189288Y-79131160D01*
X197093134Y-77839524D02*
X197426467Y-78416874D01*
X196696461Y-77628657D02*
X196847408Y-78366294D01*
X197383519Y-78056771D01*
%TO.C,LED3*%
X197517941Y-85763302D02*
X197105548Y-86001397D01*
X196605548Y-85135372D01*
X197544712Y-85143003D02*
X197833387Y-84976336D01*
X198219009Y-85358540D02*
X197806616Y-85596635D01*
X197306616Y-84730610D01*
X197719009Y-84492514D01*
X198590163Y-85144254D02*
X198090163Y-84278229D01*
X198296360Y-84159181D01*
X198443887Y-84128992D01*
X198573985Y-84163851D01*
X198662843Y-84222520D01*
X198799321Y-84363668D01*
X198870749Y-84487386D01*
X198924748Y-84676153D01*
X198931128Y-84782441D01*
X198896268Y-84912539D01*
X198796360Y-85025206D01*
X198590163Y-85144254D01*
X198873710Y-83825848D02*
X199409821Y-83516324D01*
X199311622Y-84012905D01*
X199435340Y-83941476D01*
X199541628Y-83935097D01*
X199606677Y-83952526D01*
X199695535Y-84011196D01*
X199814583Y-84217392D01*
X199820963Y-84323680D01*
X199803533Y-84388729D01*
X199744864Y-84477587D01*
X199497428Y-84620445D01*
X199391140Y-84626824D01*
X199326091Y-84609395D01*
%TO.C,LED2*%
X200125079Y-91689881D02*
X199712686Y-91927976D01*
X199212686Y-91061951D01*
X200151850Y-91069582D02*
X200440525Y-90902915D01*
X200826147Y-91285119D02*
X200413754Y-91523214D01*
X199913754Y-90657189D01*
X200326147Y-90419093D01*
X201197301Y-91070833D02*
X200697301Y-90204808D01*
X200903498Y-90085760D01*
X201051025Y-90055571D01*
X201181123Y-90090430D01*
X201269981Y-90149099D01*
X201406459Y-90290247D01*
X201477887Y-90413965D01*
X201531886Y-90602732D01*
X201538266Y-90709020D01*
X201503406Y-90839118D01*
X201403498Y-90951785D01*
X201197301Y-91070833D01*
X201569706Y-89811096D02*
X201587136Y-89746047D01*
X201645805Y-89657189D01*
X201852002Y-89538141D01*
X201958290Y-89531761D01*
X202023339Y-89549191D01*
X202112197Y-89607860D01*
X202159816Y-89690339D01*
X202190005Y-89837866D01*
X201980848Y-90618452D01*
X202516959Y-90308928D01*
%TO.C,LED1*%
X202935366Y-97522872D02*
X202522973Y-97760967D01*
X202022973Y-96894942D01*
X202962137Y-96902573D02*
X203250812Y-96735906D01*
X203636434Y-97118110D02*
X203224041Y-97356205D01*
X202724041Y-96490180D01*
X203136434Y-96252084D01*
X204007588Y-96903824D02*
X203507588Y-96037799D01*
X203713785Y-95918751D01*
X203861312Y-95888562D01*
X203991410Y-95923421D01*
X204080268Y-95982090D01*
X204216746Y-96123238D01*
X204288174Y-96246956D01*
X204342173Y-96435723D01*
X204348553Y-96542011D01*
X204313693Y-96672109D01*
X204213785Y-96784776D01*
X204007588Y-96903824D01*
X205327246Y-96141919D02*
X204832374Y-96427634D01*
X205079810Y-96284776D02*
X204579810Y-95418751D01*
X204568760Y-95590088D01*
X204533901Y-95720186D01*
X204475231Y-95809044D01*
%TO.C,LED0*%
X205945450Y-103255315D02*
X205533057Y-103493410D01*
X205033057Y-102627385D01*
X205972221Y-102635016D02*
X206260896Y-102468349D01*
X206646518Y-102850553D02*
X206234125Y-103088648D01*
X205734125Y-102222623D01*
X206146518Y-101984527D01*
X207017672Y-102636267D02*
X206517672Y-101770242D01*
X206723869Y-101651194D01*
X206871396Y-101621005D01*
X207001494Y-101655864D01*
X207090352Y-101714533D01*
X207226830Y-101855681D01*
X207298258Y-101979399D01*
X207352257Y-102168166D01*
X207358637Y-102274454D01*
X207323777Y-102404552D01*
X207223869Y-102517219D01*
X207017672Y-102636267D01*
X207548655Y-101175004D02*
X207631133Y-101127385D01*
X207737422Y-101121005D01*
X207802470Y-101138435D01*
X207891329Y-101197104D01*
X208027806Y-101338251D01*
X208146854Y-101544448D01*
X208200853Y-101733215D01*
X208207232Y-101839503D01*
X208189803Y-101904552D01*
X208131133Y-101993410D01*
X208048655Y-102041029D01*
X207942367Y-102047409D01*
X207877318Y-102029979D01*
X207788460Y-101971310D01*
X207651982Y-101830162D01*
X207532935Y-101623966D01*
X207478936Y-101435199D01*
X207472556Y-101328911D01*
X207489986Y-101263862D01*
X207548655Y-101175004D01*
%TO.C,K61*%
X224407262Y-127800182D02*
X223740989Y-128545891D01*
X223981142Y-127419455D02*
X223920005Y-128131119D01*
X223314870Y-128165164D02*
X224121716Y-128119771D01*
X222675691Y-127594073D02*
X222817731Y-127720982D01*
X222920478Y-127748927D01*
X222987715Y-127745144D01*
X223153917Y-127702069D01*
X223316336Y-127591756D01*
X223570154Y-127307677D01*
X223598099Y-127204930D01*
X223594316Y-127137692D01*
X223555023Y-127038728D01*
X223412984Y-126911819D01*
X223310236Y-126883874D01*
X223242999Y-126887657D01*
X223144035Y-126926950D01*
X222985399Y-127104499D01*
X222957454Y-127207247D01*
X222961237Y-127274484D01*
X223000529Y-127373448D01*
X223142569Y-127500357D01*
X223245316Y-127528302D01*
X223312553Y-127524519D01*
X223411518Y-127485226D01*
X222560745Y-126150365D02*
X222986864Y-126531092D01*
X222773805Y-126340729D02*
X222107532Y-127086437D01*
X222273734Y-127043362D01*
X222408208Y-127035796D01*
X222510956Y-127063741D01*
%TO.C,K60*%
X207992796Y-113598925D02*
X207526255Y-114483424D01*
X207487368Y-113332330D02*
X207599844Y-114037704D01*
X207020827Y-114216830D02*
X207792850Y-113977996D01*
X206262684Y-113816937D02*
X206431160Y-113905802D01*
X206537615Y-113908116D01*
X206601950Y-113888213D01*
X206752837Y-113806288D01*
X206883821Y-113660028D01*
X207061550Y-113323076D01*
X207063864Y-113216622D01*
X207043961Y-113152287D01*
X206981939Y-113065735D01*
X206813463Y-112976870D01*
X206707009Y-112974557D01*
X206642674Y-112994459D01*
X206556122Y-113056481D01*
X206445041Y-113267076D01*
X206442727Y-113373531D01*
X206462630Y-113437866D01*
X206524652Y-113524417D01*
X206693128Y-113613282D01*
X206799582Y-113615596D01*
X206863918Y-113595693D01*
X206950469Y-113533671D01*
X205630899Y-113483694D02*
X205546661Y-113439261D01*
X205484639Y-113352710D01*
X205464736Y-113288374D01*
X205467050Y-113181920D01*
X205513795Y-112991228D01*
X205624877Y-112780633D01*
X205755861Y-112634373D01*
X205842412Y-112572351D01*
X205906747Y-112552448D01*
X206013202Y-112554762D01*
X206097440Y-112599194D01*
X206159462Y-112685746D01*
X206179364Y-112750081D01*
X206177051Y-112856535D01*
X206130305Y-113047227D01*
X206019224Y-113257823D01*
X205888240Y-113404082D01*
X205801688Y-113466104D01*
X205737353Y-113486007D01*
X205630899Y-113483694D01*
%TO.C,K53*%
X183345714Y-46012380D02*
X183345714Y-45012380D01*
X183917142Y-46012380D02*
X183488571Y-45440952D01*
X183917142Y-45012380D02*
X183345714Y-45583809D01*
X184821904Y-45012380D02*
X184345714Y-45012380D01*
X184298095Y-45488571D01*
X184345714Y-45440952D01*
X184440952Y-45393333D01*
X184679047Y-45393333D01*
X184774285Y-45440952D01*
X184821904Y-45488571D01*
X184869523Y-45583809D01*
X184869523Y-45821904D01*
X184821904Y-45917142D01*
X184774285Y-45964761D01*
X184679047Y-46012380D01*
X184440952Y-46012380D01*
X184345714Y-45964761D01*
X184298095Y-45917142D01*
X185202857Y-45012380D02*
X185821904Y-45012380D01*
X185488571Y-45393333D01*
X185631428Y-45393333D01*
X185726666Y-45440952D01*
X185774285Y-45488571D01*
X185821904Y-45583809D01*
X185821904Y-45821904D01*
X185774285Y-45917142D01*
X185726666Y-45964761D01*
X185631428Y-46012380D01*
X185345714Y-46012380D01*
X185250476Y-45964761D01*
X185202857Y-45917142D01*
%TO.C,K52*%
X183345714Y-75672380D02*
X183345714Y-74672380D01*
X183917142Y-75672380D02*
X183488571Y-75100952D01*
X183917142Y-74672380D02*
X183345714Y-75243809D01*
X184821904Y-74672380D02*
X184345714Y-74672380D01*
X184298095Y-75148571D01*
X184345714Y-75100952D01*
X184440952Y-75053333D01*
X184679047Y-75053333D01*
X184774285Y-75100952D01*
X184821904Y-75148571D01*
X184869523Y-75243809D01*
X184869523Y-75481904D01*
X184821904Y-75577142D01*
X184774285Y-75624761D01*
X184679047Y-75672380D01*
X184440952Y-75672380D01*
X184345714Y-75624761D01*
X184298095Y-75577142D01*
X185250476Y-74767619D02*
X185298095Y-74720000D01*
X185393333Y-74672380D01*
X185631428Y-74672380D01*
X185726666Y-74720000D01*
X185774285Y-74767619D01*
X185821904Y-74862857D01*
X185821904Y-74958095D01*
X185774285Y-75100952D01*
X185202857Y-75672380D01*
X185821904Y-75672380D01*
%TO.C,K51*%
X183345714Y-85012380D02*
X183345714Y-84012380D01*
X183917142Y-85012380D02*
X183488571Y-84440952D01*
X183917142Y-84012380D02*
X183345714Y-84583809D01*
X184821904Y-84012380D02*
X184345714Y-84012380D01*
X184298095Y-84488571D01*
X184345714Y-84440952D01*
X184440952Y-84393333D01*
X184679047Y-84393333D01*
X184774285Y-84440952D01*
X184821904Y-84488571D01*
X184869523Y-84583809D01*
X184869523Y-84821904D01*
X184821904Y-84917142D01*
X184774285Y-84964761D01*
X184679047Y-85012380D01*
X184440952Y-85012380D01*
X184345714Y-84964761D01*
X184298095Y-84917142D01*
X185821904Y-85012380D02*
X185250476Y-85012380D01*
X185536190Y-85012380D02*
X185536190Y-84012380D01*
X185440952Y-84155238D01*
X185345714Y-84250476D01*
X185250476Y-84298095D01*
%TO.C,K50*%
X183345714Y-114672380D02*
X183345714Y-113672380D01*
X183917142Y-114672380D02*
X183488571Y-114100952D01*
X183917142Y-113672380D02*
X183345714Y-114243809D01*
X184821904Y-113672380D02*
X184345714Y-113672380D01*
X184298095Y-114148571D01*
X184345714Y-114100952D01*
X184440952Y-114053333D01*
X184679047Y-114053333D01*
X184774285Y-114100952D01*
X184821904Y-114148571D01*
X184869523Y-114243809D01*
X184869523Y-114481904D01*
X184821904Y-114577142D01*
X184774285Y-114624761D01*
X184679047Y-114672380D01*
X184440952Y-114672380D01*
X184345714Y-114624761D01*
X184298095Y-114577142D01*
X185488571Y-113672380D02*
X185583809Y-113672380D01*
X185679047Y-113720000D01*
X185726666Y-113767619D01*
X185774285Y-113862857D01*
X185821904Y-114053333D01*
X185821904Y-114291428D01*
X185774285Y-114481904D01*
X185726666Y-114577142D01*
X185679047Y-114624761D01*
X185583809Y-114672380D01*
X185488571Y-114672380D01*
X185393333Y-114624761D01*
X185345714Y-114577142D01*
X185298095Y-114481904D01*
X185250476Y-114291428D01*
X185250476Y-114053333D01*
X185298095Y-113862857D01*
X185345714Y-113767619D01*
X185393333Y-113720000D01*
X185488571Y-113672380D01*
%TO.C,K43*%
X163845714Y-46012380D02*
X163845714Y-45012380D01*
X164417142Y-46012380D02*
X163988571Y-45440952D01*
X164417142Y-45012380D02*
X163845714Y-45583809D01*
X165274285Y-45345714D02*
X165274285Y-46012380D01*
X165036190Y-44964761D02*
X164798095Y-45679047D01*
X165417142Y-45679047D01*
X165702857Y-45012380D02*
X166321904Y-45012380D01*
X165988571Y-45393333D01*
X166131428Y-45393333D01*
X166226666Y-45440952D01*
X166274285Y-45488571D01*
X166321904Y-45583809D01*
X166321904Y-45821904D01*
X166274285Y-45917142D01*
X166226666Y-45964761D01*
X166131428Y-46012380D01*
X165845714Y-46012380D01*
X165750476Y-45964761D01*
X165702857Y-45917142D01*
%TO.C,K42*%
X163845714Y-75672380D02*
X163845714Y-74672380D01*
X164417142Y-75672380D02*
X163988571Y-75100952D01*
X164417142Y-74672380D02*
X163845714Y-75243809D01*
X165274285Y-75005714D02*
X165274285Y-75672380D01*
X165036190Y-74624761D02*
X164798095Y-75339047D01*
X165417142Y-75339047D01*
X165750476Y-74767619D02*
X165798095Y-74720000D01*
X165893333Y-74672380D01*
X166131428Y-74672380D01*
X166226666Y-74720000D01*
X166274285Y-74767619D01*
X166321904Y-74862857D01*
X166321904Y-74958095D01*
X166274285Y-75100952D01*
X165702857Y-75672380D01*
X166321904Y-75672380D01*
%TO.C,K41*%
X163845714Y-95172380D02*
X163845714Y-94172380D01*
X164417142Y-95172380D02*
X163988571Y-94600952D01*
X164417142Y-94172380D02*
X163845714Y-94743809D01*
X165274285Y-94505714D02*
X165274285Y-95172380D01*
X165036190Y-94124761D02*
X164798095Y-94839047D01*
X165417142Y-94839047D01*
X166321904Y-95172380D02*
X165750476Y-95172380D01*
X166036190Y-95172380D02*
X166036190Y-94172380D01*
X165940952Y-94315238D01*
X165845714Y-94410476D01*
X165750476Y-94458095D01*
%TO.C,K40*%
X163845714Y-114672380D02*
X163845714Y-113672380D01*
X164417142Y-114672380D02*
X163988571Y-114100952D01*
X164417142Y-113672380D02*
X163845714Y-114243809D01*
X165274285Y-114005714D02*
X165274285Y-114672380D01*
X165036190Y-113624761D02*
X164798095Y-114339047D01*
X165417142Y-114339047D01*
X165988571Y-113672380D02*
X166083809Y-113672380D01*
X166179047Y-113720000D01*
X166226666Y-113767619D01*
X166274285Y-113862857D01*
X166321904Y-114053333D01*
X166321904Y-114291428D01*
X166274285Y-114481904D01*
X166226666Y-114577142D01*
X166179047Y-114624761D01*
X166083809Y-114672380D01*
X165988571Y-114672380D01*
X165893333Y-114624761D01*
X165845714Y-114577142D01*
X165798095Y-114481904D01*
X165750476Y-114291428D01*
X165750476Y-114053333D01*
X165798095Y-113862857D01*
X165845714Y-113767619D01*
X165893333Y-113720000D01*
X165988571Y-113672380D01*
%TO.C,K33*%
X144345714Y-41137380D02*
X144345714Y-40137380D01*
X144917142Y-41137380D02*
X144488571Y-40565952D01*
X144917142Y-40137380D02*
X144345714Y-40708809D01*
X145250476Y-40137380D02*
X145869523Y-40137380D01*
X145536190Y-40518333D01*
X145679047Y-40518333D01*
X145774285Y-40565952D01*
X145821904Y-40613571D01*
X145869523Y-40708809D01*
X145869523Y-40946904D01*
X145821904Y-41042142D01*
X145774285Y-41089761D01*
X145679047Y-41137380D01*
X145393333Y-41137380D01*
X145298095Y-41089761D01*
X145250476Y-41042142D01*
X146202857Y-40137380D02*
X146821904Y-40137380D01*
X146488571Y-40518333D01*
X146631428Y-40518333D01*
X146726666Y-40565952D01*
X146774285Y-40613571D01*
X146821904Y-40708809D01*
X146821904Y-40946904D01*
X146774285Y-41042142D01*
X146726666Y-41089761D01*
X146631428Y-41137380D01*
X146345714Y-41137380D01*
X146250476Y-41089761D01*
X146202857Y-41042142D01*
%TO.C,K32*%
X144345714Y-70797380D02*
X144345714Y-69797380D01*
X144917142Y-70797380D02*
X144488571Y-70225952D01*
X144917142Y-69797380D02*
X144345714Y-70368809D01*
X145250476Y-69797380D02*
X145869523Y-69797380D01*
X145536190Y-70178333D01*
X145679047Y-70178333D01*
X145774285Y-70225952D01*
X145821904Y-70273571D01*
X145869523Y-70368809D01*
X145869523Y-70606904D01*
X145821904Y-70702142D01*
X145774285Y-70749761D01*
X145679047Y-70797380D01*
X145393333Y-70797380D01*
X145298095Y-70749761D01*
X145250476Y-70702142D01*
X146250476Y-69892619D02*
X146298095Y-69845000D01*
X146393333Y-69797380D01*
X146631428Y-69797380D01*
X146726666Y-69845000D01*
X146774285Y-69892619D01*
X146821904Y-69987857D01*
X146821904Y-70083095D01*
X146774285Y-70225952D01*
X146202857Y-70797380D01*
X146821904Y-70797380D01*
%TO.C,K31*%
X144345714Y-90297380D02*
X144345714Y-89297380D01*
X144917142Y-90297380D02*
X144488571Y-89725952D01*
X144917142Y-89297380D02*
X144345714Y-89868809D01*
X145250476Y-89297380D02*
X145869523Y-89297380D01*
X145536190Y-89678333D01*
X145679047Y-89678333D01*
X145774285Y-89725952D01*
X145821904Y-89773571D01*
X145869523Y-89868809D01*
X145869523Y-90106904D01*
X145821904Y-90202142D01*
X145774285Y-90249761D01*
X145679047Y-90297380D01*
X145393333Y-90297380D01*
X145298095Y-90249761D01*
X145250476Y-90202142D01*
X146821904Y-90297380D02*
X146250476Y-90297380D01*
X146536190Y-90297380D02*
X146536190Y-89297380D01*
X146440952Y-89440238D01*
X146345714Y-89535476D01*
X146250476Y-89583095D01*
%TO.C,K30*%
X144345714Y-109797380D02*
X144345714Y-108797380D01*
X144917142Y-109797380D02*
X144488571Y-109225952D01*
X144917142Y-108797380D02*
X144345714Y-109368809D01*
X145250476Y-108797380D02*
X145869523Y-108797380D01*
X145536190Y-109178333D01*
X145679047Y-109178333D01*
X145774285Y-109225952D01*
X145821904Y-109273571D01*
X145869523Y-109368809D01*
X145869523Y-109606904D01*
X145821904Y-109702142D01*
X145774285Y-109749761D01*
X145679047Y-109797380D01*
X145393333Y-109797380D01*
X145298095Y-109749761D01*
X145250476Y-109702142D01*
X146488571Y-108797380D02*
X146583809Y-108797380D01*
X146679047Y-108845000D01*
X146726666Y-108892619D01*
X146774285Y-108987857D01*
X146821904Y-109178333D01*
X146821904Y-109416428D01*
X146774285Y-109606904D01*
X146726666Y-109702142D01*
X146679047Y-109749761D01*
X146583809Y-109797380D01*
X146488571Y-109797380D01*
X146393333Y-109749761D01*
X146345714Y-109702142D01*
X146298095Y-109606904D01*
X146250476Y-109416428D01*
X146250476Y-109178333D01*
X146298095Y-108987857D01*
X146345714Y-108892619D01*
X146393333Y-108845000D01*
X146488571Y-108797380D01*
%TO.C,K23*%
X124845714Y-46012380D02*
X124845714Y-45012380D01*
X125417142Y-46012380D02*
X124988571Y-45440952D01*
X125417142Y-45012380D02*
X124845714Y-45583809D01*
X125798095Y-45107619D02*
X125845714Y-45060000D01*
X125940952Y-45012380D01*
X126179047Y-45012380D01*
X126274285Y-45060000D01*
X126321904Y-45107619D01*
X126369523Y-45202857D01*
X126369523Y-45298095D01*
X126321904Y-45440952D01*
X125750476Y-46012380D01*
X126369523Y-46012380D01*
X126702857Y-45012380D02*
X127321904Y-45012380D01*
X126988571Y-45393333D01*
X127131428Y-45393333D01*
X127226666Y-45440952D01*
X127274285Y-45488571D01*
X127321904Y-45583809D01*
X127321904Y-45821904D01*
X127274285Y-45917142D01*
X127226666Y-45964761D01*
X127131428Y-46012380D01*
X126845714Y-46012380D01*
X126750476Y-45964761D01*
X126702857Y-45917142D01*
%TO.C,K22*%
X124845714Y-75672380D02*
X124845714Y-74672380D01*
X125417142Y-75672380D02*
X124988571Y-75100952D01*
X125417142Y-74672380D02*
X124845714Y-75243809D01*
X125798095Y-74767619D02*
X125845714Y-74720000D01*
X125940952Y-74672380D01*
X126179047Y-74672380D01*
X126274285Y-74720000D01*
X126321904Y-74767619D01*
X126369523Y-74862857D01*
X126369523Y-74958095D01*
X126321904Y-75100952D01*
X125750476Y-75672380D01*
X126369523Y-75672380D01*
X126750476Y-74767619D02*
X126798095Y-74720000D01*
X126893333Y-74672380D01*
X127131428Y-74672380D01*
X127226666Y-74720000D01*
X127274285Y-74767619D01*
X127321904Y-74862857D01*
X127321904Y-74958095D01*
X127274285Y-75100952D01*
X126702857Y-75672380D01*
X127321904Y-75672380D01*
%TO.C,K21*%
X124845714Y-95172380D02*
X124845714Y-94172380D01*
X125417142Y-95172380D02*
X124988571Y-94600952D01*
X125417142Y-94172380D02*
X124845714Y-94743809D01*
X125798095Y-94267619D02*
X125845714Y-94220000D01*
X125940952Y-94172380D01*
X126179047Y-94172380D01*
X126274285Y-94220000D01*
X126321904Y-94267619D01*
X126369523Y-94362857D01*
X126369523Y-94458095D01*
X126321904Y-94600952D01*
X125750476Y-95172380D01*
X126369523Y-95172380D01*
X127321904Y-95172380D02*
X126750476Y-95172380D01*
X127036190Y-95172380D02*
X127036190Y-94172380D01*
X126940952Y-94315238D01*
X126845714Y-94410476D01*
X126750476Y-94458095D01*
%TO.C,K20*%
X124845714Y-114672380D02*
X124845714Y-113672380D01*
X125417142Y-114672380D02*
X124988571Y-114100952D01*
X125417142Y-113672380D02*
X124845714Y-114243809D01*
X125798095Y-113767619D02*
X125845714Y-113720000D01*
X125940952Y-113672380D01*
X126179047Y-113672380D01*
X126274285Y-113720000D01*
X126321904Y-113767619D01*
X126369523Y-113862857D01*
X126369523Y-113958095D01*
X126321904Y-114100952D01*
X125750476Y-114672380D01*
X126369523Y-114672380D01*
X126988571Y-113672380D02*
X127083809Y-113672380D01*
X127179047Y-113720000D01*
X127226666Y-113767619D01*
X127274285Y-113862857D01*
X127321904Y-114053333D01*
X127321904Y-114291428D01*
X127274285Y-114481904D01*
X127226666Y-114577142D01*
X127179047Y-114624761D01*
X127083809Y-114672380D01*
X126988571Y-114672380D01*
X126893333Y-114624761D01*
X126845714Y-114577142D01*
X126798095Y-114481904D01*
X126750476Y-114291428D01*
X126750476Y-114053333D01*
X126798095Y-113862857D01*
X126845714Y-113767619D01*
X126893333Y-113720000D01*
X126988571Y-113672380D01*
%TO.C,K13*%
X105345714Y-50887380D02*
X105345714Y-49887380D01*
X105917142Y-50887380D02*
X105488571Y-50315952D01*
X105917142Y-49887380D02*
X105345714Y-50458809D01*
X106869523Y-50887380D02*
X106298095Y-50887380D01*
X106583809Y-50887380D02*
X106583809Y-49887380D01*
X106488571Y-50030238D01*
X106393333Y-50125476D01*
X106298095Y-50173095D01*
X107202857Y-49887380D02*
X107821904Y-49887380D01*
X107488571Y-50268333D01*
X107631428Y-50268333D01*
X107726666Y-50315952D01*
X107774285Y-50363571D01*
X107821904Y-50458809D01*
X107821904Y-50696904D01*
X107774285Y-50792142D01*
X107726666Y-50839761D01*
X107631428Y-50887380D01*
X107345714Y-50887380D01*
X107250476Y-50839761D01*
X107202857Y-50792142D01*
%TO.C,K12*%
X105345714Y-80547380D02*
X105345714Y-79547380D01*
X105917142Y-80547380D02*
X105488571Y-79975952D01*
X105917142Y-79547380D02*
X105345714Y-80118809D01*
X106869523Y-80547380D02*
X106298095Y-80547380D01*
X106583809Y-80547380D02*
X106583809Y-79547380D01*
X106488571Y-79690238D01*
X106393333Y-79785476D01*
X106298095Y-79833095D01*
X107250476Y-79642619D02*
X107298095Y-79595000D01*
X107393333Y-79547380D01*
X107631428Y-79547380D01*
X107726666Y-79595000D01*
X107774285Y-79642619D01*
X107821904Y-79737857D01*
X107821904Y-79833095D01*
X107774285Y-79975952D01*
X107202857Y-80547380D01*
X107821904Y-80547380D01*
%TO.C,K11*%
X105345714Y-100047380D02*
X105345714Y-99047380D01*
X105917142Y-100047380D02*
X105488571Y-99475952D01*
X105917142Y-99047380D02*
X105345714Y-99618809D01*
X106869523Y-100047380D02*
X106298095Y-100047380D01*
X106583809Y-100047380D02*
X106583809Y-99047380D01*
X106488571Y-99190238D01*
X106393333Y-99285476D01*
X106298095Y-99333095D01*
X107821904Y-100047380D02*
X107250476Y-100047380D01*
X107536190Y-100047380D02*
X107536190Y-99047380D01*
X107440952Y-99190238D01*
X107345714Y-99285476D01*
X107250476Y-99333095D01*
%TO.C,K10*%
X105345714Y-119547380D02*
X105345714Y-118547380D01*
X105917142Y-119547380D02*
X105488571Y-118975952D01*
X105917142Y-118547380D02*
X105345714Y-119118809D01*
X106869523Y-119547380D02*
X106298095Y-119547380D01*
X106583809Y-119547380D02*
X106583809Y-118547380D01*
X106488571Y-118690238D01*
X106393333Y-118785476D01*
X106298095Y-118833095D01*
X107488571Y-118547380D02*
X107583809Y-118547380D01*
X107679047Y-118595000D01*
X107726666Y-118642619D01*
X107774285Y-118737857D01*
X107821904Y-118928333D01*
X107821904Y-119166428D01*
X107774285Y-119356904D01*
X107726666Y-119452142D01*
X107679047Y-119499761D01*
X107583809Y-119547380D01*
X107488571Y-119547380D01*
X107393333Y-119499761D01*
X107345714Y-119452142D01*
X107298095Y-119356904D01*
X107250476Y-119166428D01*
X107250476Y-118928333D01*
X107298095Y-118737857D01*
X107345714Y-118642619D01*
X107393333Y-118595000D01*
X107488571Y-118547380D01*
%TO.C,K03*%
X85845714Y-55762380D02*
X85845714Y-54762380D01*
X86417142Y-55762380D02*
X85988571Y-55190952D01*
X86417142Y-54762380D02*
X85845714Y-55333809D01*
X87036190Y-54762380D02*
X87131428Y-54762380D01*
X87226666Y-54810000D01*
X87274285Y-54857619D01*
X87321904Y-54952857D01*
X87369523Y-55143333D01*
X87369523Y-55381428D01*
X87321904Y-55571904D01*
X87274285Y-55667142D01*
X87226666Y-55714761D01*
X87131428Y-55762380D01*
X87036190Y-55762380D01*
X86940952Y-55714761D01*
X86893333Y-55667142D01*
X86845714Y-55571904D01*
X86798095Y-55381428D01*
X86798095Y-55143333D01*
X86845714Y-54952857D01*
X86893333Y-54857619D01*
X86940952Y-54810000D01*
X87036190Y-54762380D01*
X87702857Y-54762380D02*
X88321904Y-54762380D01*
X87988571Y-55143333D01*
X88131428Y-55143333D01*
X88226666Y-55190952D01*
X88274285Y-55238571D01*
X88321904Y-55333809D01*
X88321904Y-55571904D01*
X88274285Y-55667142D01*
X88226666Y-55714761D01*
X88131428Y-55762380D01*
X87845714Y-55762380D01*
X87750476Y-55714761D01*
X87702857Y-55667142D01*
%TO.C,K02*%
X85845714Y-85422380D02*
X85845714Y-84422380D01*
X86417142Y-85422380D02*
X85988571Y-84850952D01*
X86417142Y-84422380D02*
X85845714Y-84993809D01*
X87036190Y-84422380D02*
X87131428Y-84422380D01*
X87226666Y-84470000D01*
X87274285Y-84517619D01*
X87321904Y-84612857D01*
X87369523Y-84803333D01*
X87369523Y-85041428D01*
X87321904Y-85231904D01*
X87274285Y-85327142D01*
X87226666Y-85374761D01*
X87131428Y-85422380D01*
X87036190Y-85422380D01*
X86940952Y-85374761D01*
X86893333Y-85327142D01*
X86845714Y-85231904D01*
X86798095Y-85041428D01*
X86798095Y-84803333D01*
X86845714Y-84612857D01*
X86893333Y-84517619D01*
X86940952Y-84470000D01*
X87036190Y-84422380D01*
X87750476Y-84517619D02*
X87798095Y-84470000D01*
X87893333Y-84422380D01*
X88131428Y-84422380D01*
X88226666Y-84470000D01*
X88274285Y-84517619D01*
X88321904Y-84612857D01*
X88321904Y-84708095D01*
X88274285Y-84850952D01*
X87702857Y-85422380D01*
X88321904Y-85422380D01*
%TO.C,K01*%
X85845714Y-104922380D02*
X85845714Y-103922380D01*
X86417142Y-104922380D02*
X85988571Y-104350952D01*
X86417142Y-103922380D02*
X85845714Y-104493809D01*
X87036190Y-103922380D02*
X87131428Y-103922380D01*
X87226666Y-103970000D01*
X87274285Y-104017619D01*
X87321904Y-104112857D01*
X87369523Y-104303333D01*
X87369523Y-104541428D01*
X87321904Y-104731904D01*
X87274285Y-104827142D01*
X87226666Y-104874761D01*
X87131428Y-104922380D01*
X87036190Y-104922380D01*
X86940952Y-104874761D01*
X86893333Y-104827142D01*
X86845714Y-104731904D01*
X86798095Y-104541428D01*
X86798095Y-104303333D01*
X86845714Y-104112857D01*
X86893333Y-104017619D01*
X86940952Y-103970000D01*
X87036190Y-103922380D01*
X88321904Y-104922380D02*
X87750476Y-104922380D01*
X88036190Y-104922380D02*
X88036190Y-103922380D01*
X87940952Y-104065238D01*
X87845714Y-104160476D01*
X87750476Y-104208095D01*
%TO.C,K00*%
X85845714Y-124422380D02*
X85845714Y-123422380D01*
X86417142Y-124422380D02*
X85988571Y-123850952D01*
X86417142Y-123422380D02*
X85845714Y-123993809D01*
X87036190Y-123422380D02*
X87131428Y-123422380D01*
X87226666Y-123470000D01*
X87274285Y-123517619D01*
X87321904Y-123612857D01*
X87369523Y-123803333D01*
X87369523Y-124041428D01*
X87321904Y-124231904D01*
X87274285Y-124327142D01*
X87226666Y-124374761D01*
X87131428Y-124422380D01*
X87036190Y-124422380D01*
X86940952Y-124374761D01*
X86893333Y-124327142D01*
X86845714Y-124231904D01*
X86798095Y-124041428D01*
X86798095Y-123803333D01*
X86845714Y-123612857D01*
X86893333Y-123517619D01*
X86940952Y-123470000D01*
X87036190Y-123422380D01*
X87988571Y-123422380D02*
X88083809Y-123422380D01*
X88179047Y-123470000D01*
X88226666Y-123517619D01*
X88274285Y-123612857D01*
X88321904Y-123803333D01*
X88321904Y-124041428D01*
X88274285Y-124231904D01*
X88226666Y-124327142D01*
X88179047Y-124374761D01*
X88083809Y-124422380D01*
X87988571Y-124422380D01*
X87893333Y-124374761D01*
X87845714Y-124327142D01*
X87798095Y-124231904D01*
X87750476Y-124041428D01*
X87750476Y-123803333D01*
X87798095Y-123612857D01*
X87845714Y-123517619D01*
X87893333Y-123470000D01*
X87988571Y-123422380D01*
%TO.C,C3*%
X202457142Y-103206664D02*
X202504761Y-103254283D01*
X202552380Y-103397140D01*
X202552380Y-103492378D01*
X202504761Y-103635236D01*
X202409523Y-103730474D01*
X202314285Y-103778093D01*
X202123809Y-103825712D01*
X201980952Y-103825712D01*
X201790476Y-103778093D01*
X201695238Y-103730474D01*
X201600000Y-103635236D01*
X201552380Y-103492378D01*
X201552380Y-103397140D01*
X201600000Y-103254283D01*
X201647619Y-103206664D01*
X201552380Y-102873331D02*
X201552380Y-102254283D01*
X201933333Y-102587617D01*
X201933333Y-102444759D01*
X201980952Y-102349521D01*
X202028571Y-102301902D01*
X202123809Y-102254283D01*
X202361904Y-102254283D01*
X202457142Y-102301902D01*
X202504761Y-102349521D01*
X202552380Y-102444759D01*
X202552380Y-102730474D01*
X202504761Y-102825712D01*
X202457142Y-102873331D01*
%TO.C,C2*%
X195173333Y-97907140D02*
X195125714Y-97954759D01*
X194982857Y-98002378D01*
X194887619Y-98002378D01*
X194744761Y-97954759D01*
X194649523Y-97859521D01*
X194601904Y-97764283D01*
X194554285Y-97573807D01*
X194554285Y-97430950D01*
X194601904Y-97240474D01*
X194649523Y-97145236D01*
X194744761Y-97049998D01*
X194887619Y-97002378D01*
X194982857Y-97002378D01*
X195125714Y-97049998D01*
X195173333Y-97097617D01*
X195554285Y-97097617D02*
X195601904Y-97049998D01*
X195697142Y-97002378D01*
X195935238Y-97002378D01*
X196030476Y-97049998D01*
X196078095Y-97097617D01*
X196125714Y-97192855D01*
X196125714Y-97288093D01*
X196078095Y-97430950D01*
X195506666Y-98002378D01*
X196125714Y-98002378D01*
%TO.C,C1*%
X195287142Y-108286664D02*
X195334761Y-108334283D01*
X195382380Y-108477140D01*
X195382380Y-108572378D01*
X195334761Y-108715236D01*
X195239523Y-108810474D01*
X195144285Y-108858093D01*
X194953809Y-108905712D01*
X194810952Y-108905712D01*
X194620476Y-108858093D01*
X194525238Y-108810474D01*
X194430000Y-108715236D01*
X194382380Y-108572378D01*
X194382380Y-108477140D01*
X194430000Y-108334283D01*
X194477619Y-108286664D01*
X195382380Y-107334283D02*
X195382380Y-107905712D01*
X195382380Y-107619998D02*
X194382380Y-107619998D01*
X194525238Y-107715236D01*
X194620476Y-107810474D01*
X194668095Y-107905712D01*
%TO.C,BoostConverter1*%
X189792380Y-100568569D02*
X189935238Y-100616188D01*
X189982857Y-100663807D01*
X190030476Y-100759045D01*
X190030476Y-100901902D01*
X189982857Y-100997140D01*
X189935238Y-101044759D01*
X189840000Y-101092378D01*
X189459047Y-101092378D01*
X189459047Y-100092378D01*
X189792380Y-100092378D01*
X189887619Y-100139998D01*
X189935238Y-100187617D01*
X189982857Y-100282855D01*
X189982857Y-100378093D01*
X189935238Y-100473331D01*
X189887619Y-100520950D01*
X189792380Y-100568569D01*
X189459047Y-100568569D01*
X190601904Y-101092378D02*
X190506666Y-101044759D01*
X190459047Y-100997140D01*
X190411428Y-100901902D01*
X190411428Y-100616188D01*
X190459047Y-100520950D01*
X190506666Y-100473331D01*
X190601904Y-100425712D01*
X190744761Y-100425712D01*
X190840000Y-100473331D01*
X190887619Y-100520950D01*
X190935238Y-100616188D01*
X190935238Y-100901902D01*
X190887619Y-100997140D01*
X190840000Y-101044759D01*
X190744761Y-101092378D01*
X190601904Y-101092378D01*
X191506666Y-101092378D02*
X191411428Y-101044759D01*
X191363809Y-100997140D01*
X191316190Y-100901902D01*
X191316190Y-100616188D01*
X191363809Y-100520950D01*
X191411428Y-100473331D01*
X191506666Y-100425712D01*
X191649523Y-100425712D01*
X191744761Y-100473331D01*
X191792380Y-100520950D01*
X191840000Y-100616188D01*
X191840000Y-100901902D01*
X191792380Y-100997140D01*
X191744761Y-101044759D01*
X191649523Y-101092378D01*
X191506666Y-101092378D01*
X192220952Y-101044759D02*
X192316190Y-101092378D01*
X192506666Y-101092378D01*
X192601904Y-101044759D01*
X192649523Y-100949521D01*
X192649523Y-100901902D01*
X192601904Y-100806664D01*
X192506666Y-100759045D01*
X192363809Y-100759045D01*
X192268571Y-100711426D01*
X192220952Y-100616188D01*
X192220952Y-100568569D01*
X192268571Y-100473331D01*
X192363809Y-100425712D01*
X192506666Y-100425712D01*
X192601904Y-100473331D01*
X192935238Y-100425712D02*
X193316190Y-100425712D01*
X193078095Y-100092378D02*
X193078095Y-100949521D01*
X193125714Y-101044759D01*
X193220952Y-101092378D01*
X193316190Y-101092378D01*
X194220952Y-100997140D02*
X194173333Y-101044759D01*
X194030476Y-101092378D01*
X193935238Y-101092378D01*
X193792380Y-101044759D01*
X193697142Y-100949521D01*
X193649523Y-100854283D01*
X193601904Y-100663807D01*
X193601904Y-100520950D01*
X193649523Y-100330474D01*
X193697142Y-100235236D01*
X193792380Y-100139998D01*
X193935238Y-100092378D01*
X194030476Y-100092378D01*
X194173333Y-100139998D01*
X194220952Y-100187617D01*
X194792380Y-101092378D02*
X194697142Y-101044759D01*
X194649523Y-100997140D01*
X194601904Y-100901902D01*
X194601904Y-100616188D01*
X194649523Y-100520950D01*
X194697142Y-100473331D01*
X194792380Y-100425712D01*
X194935238Y-100425712D01*
X195030476Y-100473331D01*
X195078095Y-100520950D01*
X195125714Y-100616188D01*
X195125714Y-100901902D01*
X195078095Y-100997140D01*
X195030476Y-101044759D01*
X194935238Y-101092378D01*
X194792380Y-101092378D01*
X195554285Y-100425712D02*
X195554285Y-101092378D01*
X195554285Y-100520950D02*
X195601904Y-100473331D01*
X195697142Y-100425712D01*
X195840000Y-100425712D01*
X195935238Y-100473331D01*
X195982857Y-100568569D01*
X195982857Y-101092378D01*
X196363809Y-100425712D02*
X196601904Y-101092378D01*
X196840000Y-100425712D01*
X197601904Y-101044759D02*
X197506666Y-101092378D01*
X197316190Y-101092378D01*
X197220952Y-101044759D01*
X197173333Y-100949521D01*
X197173333Y-100568569D01*
X197220952Y-100473331D01*
X197316190Y-100425712D01*
X197506666Y-100425712D01*
X197601904Y-100473331D01*
X197649523Y-100568569D01*
X197649523Y-100663807D01*
X197173333Y-100759045D01*
X198078095Y-101092378D02*
X198078095Y-100425712D01*
X198078095Y-100616188D02*
X198125714Y-100520950D01*
X198173333Y-100473331D01*
X198268571Y-100425712D01*
X198363809Y-100425712D01*
X198554285Y-100425712D02*
X198935238Y-100425712D01*
X198697142Y-100092378D02*
X198697142Y-100949521D01*
X198744761Y-101044759D01*
X198840000Y-101092378D01*
X198935238Y-101092378D01*
X199649523Y-101044759D02*
X199554285Y-101092378D01*
X199363809Y-101092378D01*
X199268571Y-101044759D01*
X199220952Y-100949521D01*
X199220952Y-100568569D01*
X199268571Y-100473331D01*
X199363809Y-100425712D01*
X199554285Y-100425712D01*
X199649523Y-100473331D01*
X199697142Y-100568569D01*
X199697142Y-100663807D01*
X199220952Y-100759045D01*
X200125714Y-101092378D02*
X200125714Y-100425712D01*
X200125714Y-100616188D02*
X200173333Y-100520950D01*
X200220952Y-100473331D01*
X200316190Y-100425712D01*
X200411428Y-100425712D01*
X201268571Y-101092378D02*
X200697142Y-101092378D01*
X200982857Y-101092378D02*
X200982857Y-100092378D01*
X200887619Y-100235236D01*
X200792380Y-100330474D01*
X200697142Y-100378093D01*
%TO.C,BatteryJmp1*%
X134548571Y-123427619D02*
X134596190Y-123284761D01*
X134643809Y-123237142D01*
X134739047Y-123189523D01*
X134881904Y-123189523D01*
X134977142Y-123237142D01*
X135024761Y-123284761D01*
X135072380Y-123380000D01*
X135072380Y-123760952D01*
X134072380Y-123760952D01*
X134072380Y-123427619D01*
X134120000Y-123332380D01*
X134167619Y-123284761D01*
X134262857Y-123237142D01*
X134358095Y-123237142D01*
X134453333Y-123284761D01*
X134500952Y-123332380D01*
X134548571Y-123427619D01*
X134548571Y-123760952D01*
X135072380Y-122332380D02*
X134548571Y-122332380D01*
X134453333Y-122380000D01*
X134405714Y-122475238D01*
X134405714Y-122665714D01*
X134453333Y-122760952D01*
X135024761Y-122332380D02*
X135072380Y-122427619D01*
X135072380Y-122665714D01*
X135024761Y-122760952D01*
X134929523Y-122808571D01*
X134834285Y-122808571D01*
X134739047Y-122760952D01*
X134691428Y-122665714D01*
X134691428Y-122427619D01*
X134643809Y-122332380D01*
X134405714Y-121999047D02*
X134405714Y-121618095D01*
X134072380Y-121856190D02*
X134929523Y-121856190D01*
X135024761Y-121808571D01*
X135072380Y-121713333D01*
X135072380Y-121618095D01*
X134405714Y-121427619D02*
X134405714Y-121046666D01*
X134072380Y-121284761D02*
X134929523Y-121284761D01*
X135024761Y-121237142D01*
X135072380Y-121141904D01*
X135072380Y-121046666D01*
X135024761Y-120332380D02*
X135072380Y-120427619D01*
X135072380Y-120618095D01*
X135024761Y-120713333D01*
X134929523Y-120760952D01*
X134548571Y-120760952D01*
X134453333Y-120713333D01*
X134405714Y-120618095D01*
X134405714Y-120427619D01*
X134453333Y-120332380D01*
X134548571Y-120284761D01*
X134643809Y-120284761D01*
X134739047Y-120760952D01*
X135072380Y-119856190D02*
X134405714Y-119856190D01*
X134596190Y-119856190D02*
X134500952Y-119808571D01*
X134453333Y-119760952D01*
X134405714Y-119665714D01*
X134405714Y-119570476D01*
X134405714Y-119332380D02*
X135072380Y-119094285D01*
X134405714Y-118856190D02*
X135072380Y-119094285D01*
X135310476Y-119189523D01*
X135358095Y-119237142D01*
X135405714Y-119332380D01*
X134072380Y-118189523D02*
X134786666Y-118189523D01*
X134929523Y-118237142D01*
X135024761Y-118332380D01*
X135072380Y-118475238D01*
X135072380Y-118570476D01*
X135072380Y-117713333D02*
X134405714Y-117713333D01*
X134500952Y-117713333D02*
X134453333Y-117665714D01*
X134405714Y-117570476D01*
X134405714Y-117427619D01*
X134453333Y-117332380D01*
X134548571Y-117284761D01*
X135072380Y-117284761D01*
X134548571Y-117284761D02*
X134453333Y-117237142D01*
X134405714Y-117141904D01*
X134405714Y-116999047D01*
X134453333Y-116903809D01*
X134548571Y-116856190D01*
X135072380Y-116856190D01*
X134405714Y-116380000D02*
X135405714Y-116380000D01*
X134453333Y-116380000D02*
X134405714Y-116284761D01*
X134405714Y-116094285D01*
X134453333Y-115999047D01*
X134500952Y-115951428D01*
X134596190Y-115903809D01*
X134881904Y-115903809D01*
X134977142Y-115951428D01*
X135024761Y-115999047D01*
X135072380Y-116094285D01*
X135072380Y-116284761D01*
X135024761Y-116380000D01*
X135072380Y-114951428D02*
X135072380Y-115522857D01*
X135072380Y-115237142D02*
X134072380Y-115237142D01*
X134215238Y-115332380D01*
X134310476Y-115427619D01*
X134358095Y-115522857D01*
%TO.C,Battery1*%
X122017676Y-131351632D02*
X122143340Y-131434603D01*
X122177012Y-131492924D01*
X122198359Y-131597242D01*
X122161385Y-131735231D01*
X122090739Y-131814900D01*
X122032418Y-131848571D01*
X121928100Y-131869918D01*
X121560128Y-131771321D01*
X121818947Y-130805395D01*
X122140923Y-130891668D01*
X122220591Y-130962314D01*
X122254263Y-131020635D01*
X122275610Y-131124953D01*
X122250960Y-131216945D01*
X122180314Y-131296614D01*
X122121993Y-131330285D01*
X122017676Y-131351632D01*
X121695700Y-131265359D01*
X122940022Y-132141062D02*
X123075594Y-131635101D01*
X123054247Y-131530783D01*
X122974579Y-131460137D01*
X122790593Y-131410839D01*
X122686276Y-131432186D01*
X122952347Y-132095066D02*
X122848029Y-132116413D01*
X122618047Y-132054789D01*
X122538379Y-131984143D01*
X122517032Y-131879826D01*
X122541681Y-131787833D01*
X122612327Y-131708164D01*
X122716645Y-131686817D01*
X122946627Y-131748441D01*
X123050945Y-131727094D01*
X123434544Y-131583385D02*
X123802515Y-131681982D01*
X123658806Y-131298383D02*
X123436961Y-132126320D01*
X123458308Y-132230638D01*
X123537977Y-132301283D01*
X123629969Y-132325933D01*
X123986501Y-131731281D02*
X124354473Y-131829879D01*
X124210764Y-131446280D02*
X123988919Y-132274216D01*
X124010266Y-132378534D01*
X124089934Y-132449180D01*
X124181927Y-132473829D01*
X124884199Y-132612704D02*
X124779881Y-132634051D01*
X124595895Y-132584752D01*
X124516227Y-132514106D01*
X124494880Y-132409788D01*
X124593478Y-132041817D01*
X124664124Y-131962148D01*
X124768441Y-131940801D01*
X124952427Y-131990100D01*
X125032095Y-132060746D01*
X125053442Y-132165064D01*
X125028793Y-132257057D01*
X124544179Y-132225802D01*
X125331839Y-132781947D02*
X125504385Y-132137997D01*
X125455086Y-132321983D02*
X125525732Y-132242314D01*
X125584053Y-132208643D01*
X125688371Y-132187296D01*
X125780364Y-132211945D01*
X126010346Y-132273569D02*
X126067782Y-132979143D01*
X126470311Y-132396816D02*
X126067782Y-132979143D01*
X125914166Y-133184476D01*
X125855845Y-133218147D01*
X125751527Y-133239495D01*
X127171697Y-133274936D02*
X126619740Y-133127039D01*
X126895719Y-133200988D02*
X127154538Y-132235062D01*
X127025571Y-132348402D01*
X126908928Y-132415745D01*
X126804611Y-132437092D01*
D11*
%TO.C,D20*%
X124250000Y-100060000D02*
X131050000Y-100060000D01*
X131050000Y-98060000D02*
X124250000Y-98060000D01*
X131050000Y-100060000D02*
X131050000Y-98060000D01*
%TO.C,D61*%
X223861570Y-124968975D02*
X217972597Y-121568975D01*
X216972597Y-123301025D02*
X222861570Y-126701025D01*
X217972597Y-121568975D02*
X216972597Y-123301025D01*
%TO.C,D60*%
X211161570Y-114443975D02*
X205272597Y-111043975D01*
X204272597Y-112776025D02*
X210161570Y-116176025D01*
X205272597Y-111043975D02*
X204272597Y-112776025D01*
%TO.C,D53*%
X186900000Y-59960000D02*
X180100000Y-59960000D01*
X180100000Y-61960000D02*
X186900000Y-61960000D01*
X180100000Y-59960000D02*
X180100000Y-61960000D01*
%TO.C,D52*%
X187310000Y-73930000D02*
X180510000Y-73930000D01*
X180510000Y-75930000D02*
X187310000Y-75930000D01*
X180510000Y-73930000D02*
X180510000Y-75930000D01*
%TO.C,D51*%
X188170000Y-77740000D02*
X181370000Y-77740000D01*
X181370000Y-79740000D02*
X188170000Y-79740000D01*
X181370000Y-77740000D02*
X181370000Y-79740000D01*
%TO.C,D50*%
X185630000Y-98060000D02*
X178830000Y-98060000D01*
X178830000Y-100060000D02*
X185630000Y-100060000D01*
X178830000Y-98060000D02*
X178830000Y-100060000D01*
%TO.C,D43*%
X162350000Y-60690000D02*
X169150000Y-60690000D01*
X169150000Y-58690000D02*
X162350000Y-58690000D01*
X169150000Y-60690000D02*
X169150000Y-58690000D01*
%TO.C,D42*%
X162985000Y-75930000D02*
X169785000Y-75930000D01*
X169785000Y-73930000D02*
X162985000Y-73930000D01*
X169785000Y-75930000D02*
X169785000Y-73930000D01*
%TO.C,D41*%
X162350000Y-79740000D02*
X169150000Y-79740000D01*
X169150000Y-77740000D02*
X162350000Y-77740000D01*
X169150000Y-79740000D02*
X169150000Y-77740000D01*
%TO.C,D40*%
X162350000Y-100060000D02*
X169150000Y-100060000D01*
X169150000Y-98060000D02*
X162350000Y-98060000D01*
X169150000Y-100060000D02*
X169150000Y-98060000D01*
%TO.C,D33*%
X143300000Y-56880000D02*
X150100000Y-56880000D01*
X150100000Y-54880000D02*
X143300000Y-54880000D01*
X150100000Y-56880000D02*
X150100000Y-54880000D01*
%TO.C,D32*%
X142030000Y-70850000D02*
X148830000Y-70850000D01*
X148830000Y-68850000D02*
X142030000Y-68850000D01*
X148830000Y-70850000D02*
X148830000Y-68850000D01*
%TO.C,D31*%
X144570000Y-74660000D02*
X151370000Y-74660000D01*
X151370000Y-72660000D02*
X144570000Y-72660000D01*
X151370000Y-74660000D02*
X151370000Y-72660000D01*
%TO.C,D30*%
X142030000Y-94980000D02*
X148830000Y-94980000D01*
X148830000Y-92980000D02*
X142030000Y-92980000D01*
X148830000Y-94980000D02*
X148830000Y-92980000D01*
%TO.C,D23*%
X124250000Y-60690000D02*
X131050000Y-60690000D01*
X131050000Y-58690000D02*
X124250000Y-58690000D01*
X131050000Y-60690000D02*
X131050000Y-58690000D01*
%TO.C,D22*%
X122980000Y-75930000D02*
X129780000Y-75930000D01*
X129780000Y-73930000D02*
X122980000Y-73930000D01*
X129780000Y-75930000D02*
X129780000Y-73930000D01*
%TO.C,D21*%
X124250000Y-79740000D02*
X131050000Y-79740000D01*
X131050000Y-77740000D02*
X124250000Y-77740000D01*
X131050000Y-79740000D02*
X131050000Y-77740000D01*
%TO.C,D13*%
X103930000Y-65770000D02*
X110730000Y-65770000D01*
X110730000Y-63770000D02*
X103930000Y-63770000D01*
X110730000Y-65770000D02*
X110730000Y-63770000D01*
%TO.C,D12*%
X103930000Y-81010000D02*
X110730000Y-81010000D01*
X110730000Y-79010000D02*
X103930000Y-79010000D01*
X110730000Y-81010000D02*
X110730000Y-79010000D01*
%TO.C,D11*%
X103930000Y-84820000D02*
X110730000Y-84820000D01*
X110730000Y-82820000D02*
X103930000Y-82820000D01*
X110730000Y-84820000D02*
X110730000Y-82820000D01*
%TO.C,D10*%
X103930000Y-105140000D02*
X110730000Y-105140000D01*
X110730000Y-103140000D02*
X103930000Y-103140000D01*
X110730000Y-105140000D02*
X110730000Y-103140000D01*
%TO.C,D03*%
X84880000Y-70850000D02*
X91680000Y-70850000D01*
X91680000Y-68850000D02*
X84880000Y-68850000D01*
X91680000Y-70850000D02*
X91680000Y-68850000D01*
%TO.C,D02*%
X83610000Y-86090000D02*
X90410000Y-86090000D01*
X90410000Y-84090000D02*
X83610000Y-84090000D01*
X90410000Y-86090000D02*
X90410000Y-84090000D01*
%TO.C,D01*%
X86150000Y-89900000D02*
X92950000Y-89900000D01*
X92950000Y-87900000D02*
X86150000Y-87900000D01*
X92950000Y-89900000D02*
X92950000Y-87900000D01*
%TO.C,D00*%
X83610000Y-110220000D02*
X90410000Y-110220000D01*
X90410000Y-108220000D02*
X83610000Y-108220000D01*
X90410000Y-110220000D02*
X90410000Y-108220000D01*
%TO.C,Reset1*%
X204870000Y-137620000D02*
X204870000Y-136120000D01*
X203620000Y-133620000D02*
X199120000Y-133620000D01*
X197870000Y-136120000D02*
X197870000Y-137620000D01*
X199120000Y-140120000D02*
X203620000Y-140120000D01*
%TO.C,Nice!NanoV2*%
X181345000Y-144845000D02*
G75*
G03*
X179345000Y-144845000I-1000000J0D01*
G01*
X181345000Y-144845000D02*
X186805000Y-144845000D01*
X171395000Y-144905000D02*
X189295000Y-144905000D01*
X189295000Y-114185000D02*
X171395000Y-114185000D01*
X173885000Y-144845000D02*
X179345000Y-144845000D01*
X186805000Y-114245000D02*
X173885000Y-114245000D01*
X173885000Y-114245000D02*
X173885000Y-144845000D01*
X189295000Y-144905000D02*
X189295000Y-114185000D01*
X171395000Y-114185000D02*
X171395000Y-144905000D01*
X186805000Y-144845000D02*
X186805000Y-114245000D01*
%TO.C,LevelShift1*%
X200790000Y-105949998D02*
X202340000Y-105949998D01*
X202340000Y-107749998D02*
X201040000Y-107749998D01*
%TO.C,LED4*%
X194031013Y-80871013D02*
X198465064Y-78311013D01*
X196754936Y-85348987D02*
X201085064Y-82848987D01*
X194191013Y-81148142D02*
X194031013Y-80871013D01*
%TO.C,LED3*%
X196591888Y-87161236D02*
X196431888Y-86884107D01*
X199155811Y-91362081D02*
X203485939Y-88862081D01*
X196431888Y-86884107D02*
X200865939Y-84324107D01*
%TO.C,LED2*%
X199199026Y-93087815D02*
X199039026Y-92810686D01*
X201762949Y-97288660D02*
X206093077Y-94788660D01*
X199039026Y-92810686D02*
X203473077Y-90250686D01*
%TO.C,LED1*%
X202009313Y-98920806D02*
X201849313Y-98643677D01*
X204573236Y-103121651D02*
X208903364Y-100621651D01*
X201849313Y-98643677D02*
X206283364Y-96083677D01*
%TO.C,LED0*%
X205019397Y-104653249D02*
X204859397Y-104376120D01*
X207583320Y-108854094D02*
X211913448Y-106354094D01*
X204859397Y-104376120D02*
X209293448Y-101816120D01*
D10*
%TO.C,K61*%
X221038014Y-140254839D02*
X220371742Y-141000548D01*
X220371742Y-141000548D02*
X219626033Y-140334276D01*
X228953844Y-129894355D02*
X229699553Y-130560627D01*
X229699553Y-130560627D02*
X229033281Y-131306336D01*
X218593360Y-121978525D02*
X219259632Y-121232816D01*
X219259632Y-121232816D02*
X220005341Y-121899088D01*
X210677530Y-132339009D02*
X209931821Y-131672737D01*
X209931821Y-131672737D02*
X210598093Y-130927028D01*
%TO.C,K60*%
X194880395Y-120851510D02*
X195346936Y-119967010D01*
X195764894Y-121318051D02*
X194880395Y-120851510D01*
X201411969Y-108468516D02*
X202296469Y-108935057D01*
X200945428Y-109353015D02*
X201411969Y-108468516D01*
X213794963Y-115000090D02*
X213328422Y-115884590D01*
X212910464Y-114533549D02*
X213794963Y-115000090D01*
X207263389Y-127383084D02*
X206378889Y-126916543D01*
X207729930Y-126498585D02*
X207263389Y-127383084D01*
%TO.C,K53*%
X191560000Y-56640000D02*
X191560000Y-57640000D01*
X191560000Y-57640000D02*
X190560000Y-57640000D01*
X190560000Y-43640000D02*
X191560000Y-43640000D01*
X191560000Y-43640000D02*
X191560000Y-44640000D01*
X177560000Y-44640000D02*
X177560000Y-43640000D01*
X177560000Y-43640000D02*
X178560000Y-43640000D01*
X178560000Y-57640000D02*
X177560000Y-57640000D01*
X177560000Y-57640000D02*
X177560000Y-56640000D01*
%TO.C,K52*%
X177560000Y-64140000D02*
X177560000Y-63140000D01*
X177560000Y-63140000D02*
X178560000Y-63140000D01*
X178560000Y-77140000D02*
X177560000Y-77140000D01*
X177560000Y-77140000D02*
X177560000Y-76140000D01*
X191560000Y-76140000D02*
X191560000Y-77140000D01*
X191560000Y-77140000D02*
X190560000Y-77140000D01*
X190560000Y-63140000D02*
X191560000Y-63140000D01*
X191560000Y-63140000D02*
X191560000Y-64140000D01*
%TO.C,K51*%
X191560000Y-95640000D02*
X191560000Y-96640000D01*
X191560000Y-96640000D02*
X190560000Y-96640000D01*
X190560000Y-82640000D02*
X191560000Y-82640000D01*
X191560000Y-82640000D02*
X191560000Y-83640000D01*
X177560000Y-83640000D02*
X177560000Y-82640000D01*
X177560000Y-82640000D02*
X178560000Y-82640000D01*
X178560000Y-96640000D02*
X177560000Y-96640000D01*
X177560000Y-96640000D02*
X177560000Y-95640000D01*
%TO.C,K50*%
X177560000Y-103140000D02*
X177560000Y-102140000D01*
X177560000Y-102140000D02*
X178560000Y-102140000D01*
X178560000Y-116140000D02*
X177560000Y-116140000D01*
X177560000Y-116140000D02*
X177560000Y-115140000D01*
X191560000Y-115140000D02*
X191560000Y-116140000D01*
X191560000Y-116140000D02*
X190560000Y-116140000D01*
X190560000Y-102140000D02*
X191560000Y-102140000D01*
X191560000Y-102140000D02*
X191560000Y-103140000D01*
%TO.C,K43*%
X172060000Y-56640000D02*
X172060000Y-57640000D01*
X172060000Y-57640000D02*
X171060000Y-57640000D01*
X171060000Y-43640000D02*
X172060000Y-43640000D01*
X172060000Y-43640000D02*
X172060000Y-44640000D01*
X158060000Y-44640000D02*
X158060000Y-43640000D01*
X158060000Y-43640000D02*
X159060000Y-43640000D01*
X159060000Y-57640000D02*
X158060000Y-57640000D01*
X158060000Y-57640000D02*
X158060000Y-56640000D01*
%TO.C,K42*%
X158060000Y-64140000D02*
X158060000Y-63140000D01*
X158060000Y-63140000D02*
X159060000Y-63140000D01*
X159060000Y-77140000D02*
X158060000Y-77140000D01*
X158060000Y-77140000D02*
X158060000Y-76140000D01*
X172060000Y-76140000D02*
X172060000Y-77140000D01*
X172060000Y-77140000D02*
X171060000Y-77140000D01*
X171060000Y-63140000D02*
X172060000Y-63140000D01*
X172060000Y-63140000D02*
X172060000Y-64140000D01*
%TO.C,K41*%
X158060000Y-83640000D02*
X158060000Y-82640000D01*
X158060000Y-82640000D02*
X159060000Y-82640000D01*
X159060000Y-96640000D02*
X158060000Y-96640000D01*
X158060000Y-96640000D02*
X158060000Y-95640000D01*
X172060000Y-95640000D02*
X172060000Y-96640000D01*
X172060000Y-96640000D02*
X171060000Y-96640000D01*
X171060000Y-82640000D02*
X172060000Y-82640000D01*
X172060000Y-82640000D02*
X172060000Y-83640000D01*
%TO.C,K40*%
X158060000Y-103140000D02*
X158060000Y-102140000D01*
X158060000Y-102140000D02*
X159060000Y-102140000D01*
X159060000Y-116140000D02*
X158060000Y-116140000D01*
X158060000Y-116140000D02*
X158060000Y-115140000D01*
X172060000Y-115140000D02*
X172060000Y-116140000D01*
X172060000Y-116140000D02*
X171060000Y-116140000D01*
X171060000Y-102140000D02*
X172060000Y-102140000D01*
X172060000Y-102140000D02*
X172060000Y-103140000D01*
%TO.C,K33*%
X152560000Y-51765000D02*
X152560000Y-52765000D01*
X152560000Y-52765000D02*
X151560000Y-52765000D01*
X151560000Y-38765000D02*
X152560000Y-38765000D01*
X152560000Y-38765000D02*
X152560000Y-39765000D01*
X138560000Y-39765000D02*
X138560000Y-38765000D01*
X138560000Y-38765000D02*
X139560000Y-38765000D01*
X139560000Y-52765000D02*
X138560000Y-52765000D01*
X138560000Y-52765000D02*
X138560000Y-51765000D01*
%TO.C,K32*%
X138560000Y-59265000D02*
X138560000Y-58265000D01*
X138560000Y-58265000D02*
X139560000Y-58265000D01*
X139560000Y-72265000D02*
X138560000Y-72265000D01*
X138560000Y-72265000D02*
X138560000Y-71265000D01*
X152560000Y-71265000D02*
X152560000Y-72265000D01*
X152560000Y-72265000D02*
X151560000Y-72265000D01*
X151560000Y-58265000D02*
X152560000Y-58265000D01*
X152560000Y-58265000D02*
X152560000Y-59265000D01*
%TO.C,K31*%
X138560000Y-78765000D02*
X138560000Y-77765000D01*
X138560000Y-77765000D02*
X139560000Y-77765000D01*
X139560000Y-91765000D02*
X138560000Y-91765000D01*
X138560000Y-91765000D02*
X138560000Y-90765000D01*
X152560000Y-90765000D02*
X152560000Y-91765000D01*
X152560000Y-91765000D02*
X151560000Y-91765000D01*
X151560000Y-77765000D02*
X152560000Y-77765000D01*
X152560000Y-77765000D02*
X152560000Y-78765000D01*
%TO.C,K30*%
X138560000Y-98265000D02*
X138560000Y-97265000D01*
X138560000Y-97265000D02*
X139560000Y-97265000D01*
X139560000Y-111265000D02*
X138560000Y-111265000D01*
X138560000Y-111265000D02*
X138560000Y-110265000D01*
X152560000Y-110265000D02*
X152560000Y-111265000D01*
X152560000Y-111265000D02*
X151560000Y-111265000D01*
X151560000Y-97265000D02*
X152560000Y-97265000D01*
X152560000Y-97265000D02*
X152560000Y-98265000D01*
%TO.C,K23*%
X133060000Y-56640000D02*
X133060000Y-57640000D01*
X133060000Y-57640000D02*
X132060000Y-57640000D01*
X132060000Y-43640000D02*
X133060000Y-43640000D01*
X133060000Y-43640000D02*
X133060000Y-44640000D01*
X119060000Y-44640000D02*
X119060000Y-43640000D01*
X119060000Y-43640000D02*
X120060000Y-43640000D01*
X120060000Y-57640000D02*
X119060000Y-57640000D01*
X119060000Y-57640000D02*
X119060000Y-56640000D01*
%TO.C,K22*%
X119060000Y-64140000D02*
X119060000Y-63140000D01*
X119060000Y-63140000D02*
X120060000Y-63140000D01*
X120060000Y-77140000D02*
X119060000Y-77140000D01*
X119060000Y-77140000D02*
X119060000Y-76140000D01*
X133060000Y-76140000D02*
X133060000Y-77140000D01*
X133060000Y-77140000D02*
X132060000Y-77140000D01*
X132060000Y-63140000D02*
X133060000Y-63140000D01*
X133060000Y-63140000D02*
X133060000Y-64140000D01*
%TO.C,K21*%
X119060000Y-83640000D02*
X119060000Y-82640000D01*
X119060000Y-82640000D02*
X120060000Y-82640000D01*
X120060000Y-96640000D02*
X119060000Y-96640000D01*
X119060000Y-96640000D02*
X119060000Y-95640000D01*
X133060000Y-95640000D02*
X133060000Y-96640000D01*
X133060000Y-96640000D02*
X132060000Y-96640000D01*
X132060000Y-82640000D02*
X133060000Y-82640000D01*
X133060000Y-82640000D02*
X133060000Y-83640000D01*
%TO.C,K20*%
X119060000Y-103140000D02*
X119060000Y-102140000D01*
X119060000Y-102140000D02*
X120060000Y-102140000D01*
X120060000Y-116140000D02*
X119060000Y-116140000D01*
X119060000Y-116140000D02*
X119060000Y-115140000D01*
X133060000Y-115140000D02*
X133060000Y-116140000D01*
X133060000Y-116140000D02*
X132060000Y-116140000D01*
X132060000Y-102140000D02*
X133060000Y-102140000D01*
X133060000Y-102140000D02*
X133060000Y-103140000D01*
%TO.C,K13*%
X113560000Y-61515000D02*
X113560000Y-62515000D01*
X113560000Y-62515000D02*
X112560000Y-62515000D01*
X112560000Y-48515000D02*
X113560000Y-48515000D01*
X113560000Y-48515000D02*
X113560000Y-49515000D01*
X99560000Y-49515000D02*
X99560000Y-48515000D01*
X99560000Y-48515000D02*
X100560000Y-48515000D01*
X100560000Y-62515000D02*
X99560000Y-62515000D01*
X99560000Y-62515000D02*
X99560000Y-61515000D01*
%TO.C,K12*%
X99560000Y-69015000D02*
X99560000Y-68015000D01*
X99560000Y-68015000D02*
X100560000Y-68015000D01*
X100560000Y-82015000D02*
X99560000Y-82015000D01*
X99560000Y-82015000D02*
X99560000Y-81015000D01*
X113560000Y-81015000D02*
X113560000Y-82015000D01*
X113560000Y-82015000D02*
X112560000Y-82015000D01*
X112560000Y-68015000D02*
X113560000Y-68015000D01*
X113560000Y-68015000D02*
X113560000Y-69015000D01*
%TO.C,K11*%
X99560000Y-88515000D02*
X99560000Y-87515000D01*
X99560000Y-87515000D02*
X100560000Y-87515000D01*
X100560000Y-101515000D02*
X99560000Y-101515000D01*
X99560000Y-101515000D02*
X99560000Y-100515000D01*
X113560000Y-100515000D02*
X113560000Y-101515000D01*
X113560000Y-101515000D02*
X112560000Y-101515000D01*
X112560000Y-87515000D02*
X113560000Y-87515000D01*
X113560000Y-87515000D02*
X113560000Y-88515000D01*
%TO.C,K10*%
X99560000Y-108015000D02*
X99560000Y-107015000D01*
X99560000Y-107015000D02*
X100560000Y-107015000D01*
X100560000Y-121015000D02*
X99560000Y-121015000D01*
X99560000Y-121015000D02*
X99560000Y-120015000D01*
X113560000Y-120015000D02*
X113560000Y-121015000D01*
X113560000Y-121015000D02*
X112560000Y-121015000D01*
X112560000Y-107015000D02*
X113560000Y-107015000D01*
X113560000Y-107015000D02*
X113560000Y-108015000D01*
%TO.C,K03*%
X94060000Y-66390000D02*
X94060000Y-67390000D01*
X94060000Y-67390000D02*
X93060000Y-67390000D01*
X93060000Y-53390000D02*
X94060000Y-53390000D01*
X94060000Y-53390000D02*
X94060000Y-54390000D01*
X80060000Y-54390000D02*
X80060000Y-53390000D01*
X80060000Y-53390000D02*
X81060000Y-53390000D01*
X81060000Y-67390000D02*
X80060000Y-67390000D01*
X80060000Y-67390000D02*
X80060000Y-66390000D01*
%TO.C,K02*%
X80060000Y-73890000D02*
X80060000Y-72890000D01*
X80060000Y-72890000D02*
X81060000Y-72890000D01*
X81060000Y-86890000D02*
X80060000Y-86890000D01*
X80060000Y-86890000D02*
X80060000Y-85890000D01*
X94060000Y-85890000D02*
X94060000Y-86890000D01*
X94060000Y-86890000D02*
X93060000Y-86890000D01*
X93060000Y-72890000D02*
X94060000Y-72890000D01*
X94060000Y-72890000D02*
X94060000Y-73890000D01*
%TO.C,K01*%
X80060000Y-93390000D02*
X80060000Y-92390000D01*
X80060000Y-92390000D02*
X81060000Y-92390000D01*
X81060000Y-106390000D02*
X80060000Y-106390000D01*
X80060000Y-106390000D02*
X80060000Y-105390000D01*
X94060000Y-105390000D02*
X94060000Y-106390000D01*
X94060000Y-106390000D02*
X93060000Y-106390000D01*
X93060000Y-92390000D02*
X94060000Y-92390000D01*
X94060000Y-92390000D02*
X94060000Y-93390000D01*
%TO.C,K00*%
X80060000Y-112890000D02*
X80060000Y-111890000D01*
X80060000Y-111890000D02*
X81060000Y-111890000D01*
X81060000Y-125890000D02*
X80060000Y-125890000D01*
X80060000Y-125890000D02*
X80060000Y-124890000D01*
X94060000Y-124890000D02*
X94060000Y-125890000D01*
X94060000Y-125890000D02*
X93060000Y-125890000D01*
X93060000Y-111890000D02*
X94060000Y-111890000D01*
X94060000Y-111890000D02*
X94060000Y-112890000D01*
D11*
%TO.C,C3*%
X199685000Y-102778746D02*
X199685000Y-103301250D01*
X201155000Y-102778746D02*
X201155000Y-103301250D01*
%TO.C,C2*%
X195078748Y-99964998D02*
X195601252Y-99964998D01*
X195078748Y-98494998D02*
X195601252Y-98494998D01*
%TO.C,C1*%
X195875000Y-108381250D02*
X195875000Y-107858746D01*
X197345000Y-108381250D02*
X197345000Y-107858746D01*
%TO.C,BoostConverter1*%
X195340000Y-101479998D02*
X193540000Y-101479998D01*
X195340000Y-104599998D02*
X196140000Y-104599998D01*
X195340000Y-101479998D02*
X196140000Y-101479998D01*
X195340000Y-104599998D02*
X194540000Y-104599998D01*
%TO.C,BatteryJmp1*%
X135890000Y-124460000D02*
X143510000Y-124460000D01*
X143510000Y-114300000D02*
X135890000Y-114300000D01*
X142240000Y-114300000D02*
X142240000Y-124460000D01*
X143510000Y-124460000D02*
X143510000Y-114300000D01*
X135890000Y-114300000D02*
X135890000Y-124460000D01*
%TO.C,Battery1*%
X159870698Y-142225668D02*
X160199398Y-140998943D01*
X158030609Y-141732618D02*
X159870698Y-142225668D01*
X160199398Y-140998943D02*
X158359310Y-140505892D01*
X154963795Y-140910868D02*
X156803884Y-141403918D01*
X156310833Y-143244007D02*
X157537559Y-143572707D01*
X156803884Y-141403918D02*
X156310833Y-143244007D01*
X158359310Y-140505892D02*
X158852360Y-138665804D01*
X157625634Y-138337103D02*
X157132584Y-140177192D01*
X157132584Y-140177192D02*
X155292495Y-139684142D01*
X158852360Y-138665804D02*
X157625634Y-138337103D01*
X155292495Y-139684142D02*
X154963795Y-140910868D01*
X157537559Y-143572707D02*
X158030609Y-141732618D01*
X87822576Y-121605631D02*
X93956205Y-123249132D01*
X93956205Y-123249132D02*
X93627505Y-124475858D01*
X93627505Y-124475858D02*
X87493876Y-122832357D01*
X87493876Y-122832357D02*
X87822576Y-121605631D01*
X97536369Y-116842444D02*
X155395326Y-132345705D01*
X155395326Y-132345705D02*
X151383631Y-147317556D01*
X151383631Y-147317556D02*
X93524674Y-131814295D01*
X93524674Y-131814295D02*
X97536369Y-116842444D01*
%TD*%
M02*
