M48
; DRILL file {KiCad 6.0.6-3a73a75311~116~ubuntu22.04.1} date Sun 03 Jul 2022 12:29:10 PM CDT
; FORMAT={-:-/ absolute / metric / decimal}
; #@! TF.CreationDate,2022-07-03T12:29:10-05:00
; #@! TF.GenerationSoftware,Kicad,Pcbnew,6.0.6-3a73a75311~116~ubuntu22.04.1
; #@! TF.FileFunction,Plated,1,2,PTH
FMAT,2
METRIC
; #@! TA.AperFunction,Plated,PTH,ViaDrill
T1C0.400
; #@! TA.AperFunction,Plated,PTH,ComponentDrill
T2C0.400
; #@! TA.AperFunction,Plated,PTH,ComponentDrill
T3C0.800
; #@! TA.AperFunction,Plated,PTH,ComponentDrill
T4C1.100
; #@! TA.AperFunction,Plated,PTH,ComponentDrill
T5C1.520
%
G90
G05
T1
X101.6Y-98.425
X106.68Y-121.92
X109.22Y-46.99
X114.3Y-66.675
X114.3Y-126.365
X128.905Y-72.39
X128.905Y-126.365
X132.715Y-90.17
X133.985Y-95.25
X133.985Y-113.665
X134.302Y-84.138
X134.62Y-59.69
X135.89Y-69.215
X135.89Y-78.74
X136.695Y-83.185
X137.795Y-95.25
X139.7Y-90.17
X141.605Y-81.28
X142.24Y-73.025
X147.955Y-124.456
X147.955Y-126.804
X149.225Y-73.66
X155.575Y-91.44
X162.56Y-120.015
X162.56Y-122.555
X171.45Y-120.015
X174.625Y-71.755
X176.53Y-139.065
X176.53Y-144.145
X176.53Y-46.99
X176.53Y-84.455
X176.53Y-111.76
X176.53Y-116.205
X176.53Y-121.285
X176.53Y-123.825
X176.53Y-126.365
X176.53Y-128.905
X176.53Y-131.445
X176.53Y-133.985
X176.53Y-135.255
X176.53Y-136.525
X176.53Y-137.795
X176.53Y-140.335
X176.53Y-141.605
X180.34Y-117.475
X188.595Y-85.725
X189.23Y-113.665
X189.23Y-114.935
X189.23Y-117.475
X189.23Y-120.015
X189.865Y-131.445
X190.5Y-123.825
X191.77Y-113.665
X193.04Y-111.76
X193.04Y-113.665
X194.31Y-74.93
X196.215Y-110.49
X196.85Y-80.645
X196.85Y-106.045
X197.485Y-82.55
X199.39Y-88.265
X202.565Y-94.615
X205.105Y-100.33
X208.28Y-106.68
X214.63Y-124.46
T2
X90.87Y-53.405
X90.87Y-67.375
X90.87Y-72.905
X90.87Y-86.875
X90.87Y-111.905
X90.87Y-125.875
X90.87Y-92.405
X90.87Y-106.375
X96.52Y-63.62
X96.52Y-65.92
X96.52Y-78.86
X96.52Y-81.16
X96.52Y-99.18
X96.52Y-101.48
X96.52Y-118.23
X96.52Y-120.53
X99.575Y-59.325
X99.575Y-71.205
X99.575Y-90.705
X99.575Y-110.205
X105.53Y-64.77
X105.53Y-80.01
X105.53Y-83.82
X105.53Y-104.14
X107.83Y-64.77
X107.83Y-80.01
X107.83Y-83.82
X107.83Y-104.14
X113.545Y-59.325
X113.545Y-71.205
X113.545Y-90.705
X113.545Y-110.205
X116.84Y-83.94
X116.84Y-86.24
X116.84Y-104.26
X116.84Y-106.56
X119.075Y-54.45
X119.075Y-66.33
X122.25Y-82.655
X122.25Y-96.625
X122.25Y-102.155
X122.25Y-116.125
X124.58Y-74.93
X125.85Y-59.69
X126.88Y-74.93
X128.15Y-59.69
X133.045Y-54.45
X133.045Y-66.33
X138.575Y-49.575
X138.575Y-61.455
X143.63Y-69.85
X144.9Y-55.88
X145.93Y-69.85
X147.2Y-55.88
X149.37Y-77.78
X149.37Y-91.75
X149.37Y-97.28
X149.37Y-111.25
X152.545Y-49.575
X152.545Y-61.455
X154.94Y-77.59
X154.94Y-79.89
X154.94Y-96.64
X154.94Y-98.94
X158.075Y-54.45
X158.075Y-66.33
X158.075Y-85.83
X158.075Y-105.33
X163.95Y-59.69
X163.95Y-78.74
X163.95Y-99.06
X164.585Y-74.93
X166.25Y-59.69
X166.25Y-78.74
X166.25Y-99.06
X166.885Y-74.93
X172.045Y-54.45
X172.045Y-66.33
X172.045Y-85.83
X172.045Y-105.33
X177.575Y-54.45
X177.575Y-66.33
X177.575Y-93.45
X177.575Y-105.33
X181.73Y-99.06
X183.0Y-60.96
X183.41Y-74.93
X184.03Y-99.06
X184.27Y-78.74
X185.3Y-60.96
X185.71Y-74.93
X186.57Y-78.74
X191.545Y-54.45
X191.545Y-66.33
X191.545Y-93.45
X191.545Y-105.33
X196.382Y-118.037
X197.565Y-142.875
X197.605Y-139.065
X199.865Y-142.875
X199.905Y-139.065
X208.738Y-124.555
X212.068Y-129.304
X222.486Y-138.612
T3
X168.91Y-114.935
X168.91Y-117.475
X168.91Y-120.015
X168.91Y-122.555
X168.91Y-125.095
X168.91Y-127.635
X168.91Y-130.175
X168.91Y-132.715
X168.91Y-135.255
X168.91Y-137.795
X168.91Y-140.335
X168.91Y-142.875
X184.15Y-114.935
X184.15Y-117.475
X184.15Y-120.015
X184.15Y-122.555
X184.15Y-125.095
X184.15Y-127.635
X184.15Y-130.175
X184.15Y-132.715
X184.15Y-135.255
X184.15Y-137.795
X184.15Y-140.335
X184.15Y-142.875
T4
X195.505Y-130.465
X195.505Y-134.965
X202.005Y-130.465
X202.005Y-134.965
T5
X150.642Y-132.08
X150.642Y-137.16
T0
M30
