%TF.GenerationSoftware,KiCad,Pcbnew,6.0.5-a6ca702e91~116~ubuntu22.04.1*%
%TF.CreationDate,2022-05-20T13:25:00-05:00*%
%TF.ProjectId,board,626f6172-642e-46b6-9963-61645f706362,rev?*%
%TF.SameCoordinates,Original*%
%TF.FileFunction,Legend,Bot*%
%TF.FilePolarity,Positive*%
%FSLAX46Y46*%
G04 Gerber Fmt 4.6, Leading zero omitted, Abs format (unit mm)*
G04 Created by KiCad (PCBNEW 6.0.5-a6ca702e91~116~ubuntu22.04.1) date 2022-05-20 13:25:00*
%MOMM*%
%LPD*%
G01*
G04 APERTURE LIST*
%ADD10C,0.150000*%
%ADD11C,0.120000*%
G04 APERTURE END LIST*
D10*
X147955000Y-117475000D02*
X147955000Y-116840000D01*
X146050000Y-117475000D02*
X146050000Y-118745000D01*
X146685000Y-118745000D02*
X146685000Y-117475000D01*
X144780000Y-122555000D02*
X147955000Y-122555000D01*
X146050000Y-116840000D02*
X144780000Y-116840000D01*
X144780000Y-121920000D02*
X144780000Y-122555000D01*
X146050000Y-118745000D02*
X146685000Y-118745000D01*
X144780000Y-117475000D02*
X146050000Y-117475000D01*
X146685000Y-116840000D02*
X146685000Y-115570000D01*
X147955000Y-122555000D02*
X147955000Y-121920000D01*
X146685000Y-117475000D02*
X147955000Y-117475000D01*
X146050000Y-115570000D02*
X146050000Y-116840000D01*
X146685000Y-115570000D02*
X146050000Y-115570000D01*
X147955000Y-121920000D02*
X144780000Y-121920000D01*
X147955000Y-116840000D02*
X146685000Y-116840000D01*
X144780000Y-116840000D02*
X144780000Y-117475000D01*
%TO.C,LED2*%
X202063327Y-90570833D02*
X202475720Y-90332738D01*
X201975720Y-89466712D01*
X201512747Y-90283867D02*
X201224072Y-90450534D01*
X201362258Y-90975595D02*
X201774652Y-90737500D01*
X201274652Y-89871474D01*
X200862258Y-90109570D01*
X200991105Y-91189881D02*
X200491105Y-90323855D01*
X200284908Y-90442903D01*
X200185000Y-90555571D01*
X200150140Y-90685668D01*
X200156520Y-90791957D01*
X200210519Y-90980723D01*
X200281947Y-91104441D01*
X200418425Y-91245589D01*
X200507283Y-91304258D01*
X200637381Y-91339118D01*
X200784908Y-91308928D01*
X200991105Y-91189881D01*
X199713938Y-90882524D02*
X199648889Y-90865095D01*
X199542601Y-90871474D01*
X199336404Y-90990522D01*
X199277735Y-91079380D01*
X199260305Y-91144429D01*
X199266685Y-91250717D01*
X199314304Y-91333196D01*
X199426972Y-91433104D01*
X200207558Y-91642262D01*
X199671447Y-91951785D01*
%TO.C,LED1*%
X204873614Y-96403824D02*
X205286007Y-96165729D01*
X204786007Y-95299703D01*
X204323034Y-96116858D02*
X204034359Y-96283525D01*
X204172545Y-96808586D02*
X204584939Y-96570491D01*
X204084939Y-95704465D01*
X203672545Y-95942561D01*
X203801392Y-97022872D02*
X203301392Y-96156846D01*
X203095195Y-96275894D01*
X202995287Y-96388562D01*
X202960427Y-96518659D01*
X202966807Y-96624948D01*
X203020806Y-96813714D01*
X203092234Y-96937432D01*
X203228712Y-97078580D01*
X203317570Y-97137249D01*
X203447668Y-97172109D01*
X203595195Y-97141919D01*
X203801392Y-97022872D01*
X202481734Y-97784776D02*
X202976606Y-97499062D01*
X202729170Y-97641919D02*
X202229170Y-96775894D01*
X202383077Y-96851993D01*
X202513175Y-96886852D01*
X202619463Y-96880473D01*
%TO.C,LED4*%
X197055314Y-78631160D02*
X197467707Y-78393065D01*
X196967707Y-77527039D01*
X196504734Y-78344194D02*
X196216059Y-78510861D01*
X196354245Y-79035922D02*
X196766639Y-78797827D01*
X196266639Y-77931801D01*
X195854245Y-78169897D01*
X195983092Y-79250208D02*
X195483092Y-78384182D01*
X195276895Y-78503230D01*
X195176987Y-78615898D01*
X195142127Y-78745995D01*
X195148507Y-78852284D01*
X195202506Y-79041050D01*
X195273934Y-79164768D01*
X195410412Y-79305916D01*
X195499270Y-79364585D01*
X195629368Y-79399445D01*
X195776895Y-79369255D01*
X195983092Y-79250208D01*
X194412579Y-79387143D02*
X194745913Y-79964493D01*
X194428300Y-78938181D02*
X194991639Y-79437723D01*
X194455528Y-79747247D01*
%TO.C,LED3*%
X199456189Y-84644254D02*
X199868582Y-84406159D01*
X199368582Y-83540133D01*
X198905609Y-84357288D02*
X198616934Y-84523955D01*
X198755120Y-85049016D02*
X199167514Y-84810921D01*
X198667514Y-83944895D01*
X198255120Y-84182991D01*
X198383967Y-85263302D02*
X197883967Y-84397276D01*
X197677770Y-84516324D01*
X197577862Y-84628992D01*
X197543002Y-84759089D01*
X197549382Y-84865378D01*
X197603381Y-85054144D01*
X197674809Y-85177862D01*
X197811287Y-85319010D01*
X197900145Y-85377679D01*
X198030243Y-85412539D01*
X198177770Y-85382349D01*
X198383967Y-85263302D01*
X197100420Y-84849657D02*
X196564309Y-85159181D01*
X197043460Y-85322429D01*
X196919742Y-85393857D01*
X196861073Y-85482716D01*
X196843643Y-85547765D01*
X196850023Y-85654053D01*
X196969071Y-85860249D01*
X197057929Y-85918918D01*
X197122978Y-85936348D01*
X197229266Y-85929968D01*
X197476702Y-85787111D01*
X197535371Y-85698253D01*
X197552801Y-85633204D01*
%TO.C,LED0*%
X207883698Y-102136269D02*
X208296091Y-101898174D01*
X207796091Y-101032148D01*
X207333118Y-101849303D02*
X207044443Y-102015970D01*
X207182629Y-102541031D02*
X207595023Y-102302936D01*
X207095023Y-101436910D01*
X206682629Y-101675006D01*
X206811476Y-102755317D02*
X206311476Y-101889291D01*
X206105279Y-102008339D01*
X206005371Y-102121007D01*
X205970511Y-102251104D01*
X205976891Y-102357393D01*
X206030890Y-102546159D01*
X206102318Y-102669877D01*
X206238796Y-102811025D01*
X206327654Y-102869694D01*
X206457752Y-102904554D01*
X206605279Y-102874364D01*
X206811476Y-102755317D01*
X205280493Y-102484529D02*
X205198014Y-102532148D01*
X205139345Y-102621007D01*
X205121916Y-102686056D01*
X205128295Y-102792344D01*
X205182294Y-102981111D01*
X205301342Y-103187307D01*
X205437819Y-103328455D01*
X205526678Y-103387124D01*
X205591726Y-103404554D01*
X205698014Y-103398174D01*
X205780493Y-103350555D01*
X205839162Y-103261696D01*
X205856592Y-103196648D01*
X205850212Y-103090359D01*
X205796213Y-102901593D01*
X205677166Y-102695396D01*
X205540688Y-102554249D01*
X205451830Y-102495579D01*
X205386781Y-102478150D01*
X205280493Y-102484529D01*
%TO.C,Nice!NanoV2*%
X177119761Y-146297380D02*
X177119761Y-145297380D01*
X176548333Y-146297380D01*
X176548333Y-145297380D01*
X176072142Y-146297380D02*
X176072142Y-145630714D01*
X176072142Y-145297380D02*
X176119761Y-145345000D01*
X176072142Y-145392619D01*
X176024523Y-145345000D01*
X176072142Y-145297380D01*
X176072142Y-145392619D01*
X175167380Y-146249761D02*
X175262619Y-146297380D01*
X175453095Y-146297380D01*
X175548333Y-146249761D01*
X175595952Y-146202142D01*
X175643571Y-146106904D01*
X175643571Y-145821190D01*
X175595952Y-145725952D01*
X175548333Y-145678333D01*
X175453095Y-145630714D01*
X175262619Y-145630714D01*
X175167380Y-145678333D01*
X174357857Y-146249761D02*
X174453095Y-146297380D01*
X174643571Y-146297380D01*
X174738809Y-146249761D01*
X174786428Y-146154523D01*
X174786428Y-145773571D01*
X174738809Y-145678333D01*
X174643571Y-145630714D01*
X174453095Y-145630714D01*
X174357857Y-145678333D01*
X174310238Y-145773571D01*
X174310238Y-145868809D01*
X174786428Y-145964047D01*
X173881666Y-146202142D02*
X173834047Y-146249761D01*
X173881666Y-146297380D01*
X173929285Y-146249761D01*
X173881666Y-146202142D01*
X173881666Y-146297380D01*
X173881666Y-145916428D02*
X173929285Y-145345000D01*
X173881666Y-145297380D01*
X173834047Y-145345000D01*
X173881666Y-145916428D01*
X173881666Y-145297380D01*
X173405476Y-146297380D02*
X173405476Y-145297380D01*
X172834047Y-146297380D01*
X172834047Y-145297380D01*
X171929285Y-146297380D02*
X171929285Y-145773571D01*
X171976904Y-145678333D01*
X172072142Y-145630714D01*
X172262619Y-145630714D01*
X172357857Y-145678333D01*
X171929285Y-146249761D02*
X172024523Y-146297380D01*
X172262619Y-146297380D01*
X172357857Y-146249761D01*
X172405476Y-146154523D01*
X172405476Y-146059285D01*
X172357857Y-145964047D01*
X172262619Y-145916428D01*
X172024523Y-145916428D01*
X171929285Y-145868809D01*
X171453095Y-145630714D02*
X171453095Y-146297380D01*
X171453095Y-145725952D02*
X171405476Y-145678333D01*
X171310238Y-145630714D01*
X171167380Y-145630714D01*
X171072142Y-145678333D01*
X171024523Y-145773571D01*
X171024523Y-146297380D01*
X170405476Y-146297380D02*
X170500714Y-146249761D01*
X170548333Y-146202142D01*
X170595952Y-146106904D01*
X170595952Y-145821190D01*
X170548333Y-145725952D01*
X170500714Y-145678333D01*
X170405476Y-145630714D01*
X170262619Y-145630714D01*
X170167380Y-145678333D01*
X170119761Y-145725952D01*
X170072142Y-145821190D01*
X170072142Y-146106904D01*
X170119761Y-146202142D01*
X170167380Y-146249761D01*
X170262619Y-146297380D01*
X170405476Y-146297380D01*
X169786428Y-145297380D02*
X169453095Y-146297380D01*
X169119761Y-145297380D01*
X168834047Y-145392619D02*
X168786428Y-145345000D01*
X168691190Y-145297380D01*
X168453095Y-145297380D01*
X168357857Y-145345000D01*
X168310238Y-145392619D01*
X168262619Y-145487857D01*
X168262619Y-145583095D01*
X168310238Y-145725952D01*
X168881666Y-146297380D01*
X168262619Y-146297380D01*
D11*
%TO.C,D20*%
X131050000Y-100060000D02*
X131050000Y-98060000D01*
X131050000Y-98060000D02*
X124250000Y-98060000D01*
X124250000Y-100060000D02*
X131050000Y-100060000D01*
%TO.C,D61*%
X217972597Y-121568975D02*
X216972597Y-123301025D01*
X216972597Y-123301025D02*
X222861570Y-126701025D01*
X223861570Y-124968975D02*
X217972597Y-121568975D01*
%TO.C,D60*%
X205272597Y-111043975D02*
X204272597Y-112776025D01*
X204272597Y-112776025D02*
X210161570Y-116176025D01*
X211161570Y-114443975D02*
X205272597Y-111043975D01*
%TO.C,D53*%
X180100000Y-59960000D02*
X180100000Y-61960000D01*
X180100000Y-61960000D02*
X186900000Y-61960000D01*
X186900000Y-59960000D02*
X180100000Y-59960000D01*
%TO.C,D52*%
X180510000Y-73930000D02*
X180510000Y-75930000D01*
X180510000Y-75930000D02*
X187310000Y-75930000D01*
X187310000Y-73930000D02*
X180510000Y-73930000D01*
%TO.C,D51*%
X181370000Y-77740000D02*
X181370000Y-79740000D01*
X181370000Y-79740000D02*
X188170000Y-79740000D01*
X188170000Y-77740000D02*
X181370000Y-77740000D01*
%TO.C,D50*%
X178830000Y-98060000D02*
X178830000Y-100060000D01*
X178830000Y-100060000D02*
X185630000Y-100060000D01*
X185630000Y-98060000D02*
X178830000Y-98060000D01*
%TO.C,D43*%
X169150000Y-60690000D02*
X169150000Y-58690000D01*
X169150000Y-58690000D02*
X162350000Y-58690000D01*
X162350000Y-60690000D02*
X169150000Y-60690000D01*
%TO.C,D42*%
X169785000Y-75930000D02*
X169785000Y-73930000D01*
X169785000Y-73930000D02*
X162985000Y-73930000D01*
X162985000Y-75930000D02*
X169785000Y-75930000D01*
%TO.C,D41*%
X169150000Y-79740000D02*
X169150000Y-77740000D01*
X169150000Y-77740000D02*
X162350000Y-77740000D01*
X162350000Y-79740000D02*
X169150000Y-79740000D01*
%TO.C,D40*%
X169150000Y-100060000D02*
X169150000Y-98060000D01*
X169150000Y-98060000D02*
X162350000Y-98060000D01*
X162350000Y-100060000D02*
X169150000Y-100060000D01*
%TO.C,D33*%
X150100000Y-56880000D02*
X150100000Y-54880000D01*
X150100000Y-54880000D02*
X143300000Y-54880000D01*
X143300000Y-56880000D02*
X150100000Y-56880000D01*
%TO.C,D32*%
X148830000Y-70850000D02*
X148830000Y-68850000D01*
X148830000Y-68850000D02*
X142030000Y-68850000D01*
X142030000Y-70850000D02*
X148830000Y-70850000D01*
%TO.C,D31*%
X151370000Y-74660000D02*
X151370000Y-72660000D01*
X151370000Y-72660000D02*
X144570000Y-72660000D01*
X144570000Y-74660000D02*
X151370000Y-74660000D01*
%TO.C,D30*%
X148830000Y-94980000D02*
X148830000Y-92980000D01*
X148830000Y-92980000D02*
X142030000Y-92980000D01*
X142030000Y-94980000D02*
X148830000Y-94980000D01*
%TO.C,D23*%
X131050000Y-60690000D02*
X131050000Y-58690000D01*
X131050000Y-58690000D02*
X124250000Y-58690000D01*
X124250000Y-60690000D02*
X131050000Y-60690000D01*
%TO.C,D22*%
X129780000Y-75930000D02*
X129780000Y-73930000D01*
X129780000Y-73930000D02*
X122980000Y-73930000D01*
X122980000Y-75930000D02*
X129780000Y-75930000D01*
%TO.C,D21*%
X131050000Y-79740000D02*
X131050000Y-77740000D01*
X131050000Y-77740000D02*
X124250000Y-77740000D01*
X124250000Y-79740000D02*
X131050000Y-79740000D01*
%TO.C,D13*%
X110730000Y-65770000D02*
X110730000Y-63770000D01*
X110730000Y-63770000D02*
X103930000Y-63770000D01*
X103930000Y-65770000D02*
X110730000Y-65770000D01*
%TO.C,D12*%
X110730000Y-81010000D02*
X110730000Y-79010000D01*
X110730000Y-79010000D02*
X103930000Y-79010000D01*
X103930000Y-81010000D02*
X110730000Y-81010000D01*
%TO.C,D11*%
X110730000Y-84820000D02*
X110730000Y-82820000D01*
X110730000Y-82820000D02*
X103930000Y-82820000D01*
X103930000Y-84820000D02*
X110730000Y-84820000D01*
%TO.C,D10*%
X110730000Y-105140000D02*
X110730000Y-103140000D01*
X110730000Y-103140000D02*
X103930000Y-103140000D01*
X103930000Y-105140000D02*
X110730000Y-105140000D01*
%TO.C,D03*%
X91680000Y-70850000D02*
X91680000Y-68850000D01*
X91680000Y-68850000D02*
X84880000Y-68850000D01*
X84880000Y-70850000D02*
X91680000Y-70850000D01*
%TO.C,D02*%
X90410000Y-86090000D02*
X90410000Y-84090000D01*
X90410000Y-84090000D02*
X83610000Y-84090000D01*
X83610000Y-86090000D02*
X90410000Y-86090000D01*
%TO.C,D01*%
X92950000Y-89900000D02*
X92950000Y-87900000D01*
X92950000Y-87900000D02*
X86150000Y-87900000D01*
X86150000Y-89900000D02*
X92950000Y-89900000D01*
%TO.C,D00*%
X90410000Y-110220000D02*
X90410000Y-108220000D01*
X90410000Y-108220000D02*
X83610000Y-108220000D01*
X83610000Y-110220000D02*
X90410000Y-110220000D01*
%TO.C,LED2*%
X203737000Y-90467815D02*
X203577000Y-90190686D01*
X206093077Y-94788660D02*
X201762949Y-97288660D01*
X203577000Y-90190686D02*
X199142949Y-92750686D01*
%TO.C,LED1*%
X206547287Y-96300806D02*
X206387287Y-96023677D01*
X208903364Y-100621651D02*
X204573236Y-103121651D01*
X206387287Y-96023677D02*
X201953236Y-98583677D01*
%TO.C,LED4*%
X198568987Y-78251013D02*
X194134936Y-80811013D01*
X201085064Y-82848987D02*
X196754936Y-85348987D01*
X198728987Y-78528142D02*
X198568987Y-78251013D01*
%TO.C,LED3*%
X201129862Y-84541236D02*
X200969862Y-84264107D01*
X203485939Y-88862081D02*
X199155811Y-91362081D01*
X200969862Y-84264107D02*
X196535811Y-86824107D01*
%TO.C,LED0*%
X209557371Y-102033251D02*
X209397371Y-101756122D01*
X211913448Y-106354096D02*
X207583320Y-108854096D01*
X209397371Y-101756122D02*
X204963320Y-104316122D01*
%TO.C,Nice!NanoV2*%
X173715000Y-144845000D02*
G75*
G03*
X171715000Y-144845000I-1000000J0D01*
G01*
X171715000Y-144845000D02*
X166255000Y-144845000D01*
X181665000Y-144905000D02*
X163765000Y-144905000D01*
X163765000Y-114185000D02*
X181665000Y-114185000D01*
X179175000Y-144845000D02*
X173715000Y-144845000D01*
X166255000Y-114245000D02*
X179175000Y-114245000D01*
X179175000Y-114245000D02*
X179175000Y-144845000D01*
X163765000Y-144905000D02*
X163765000Y-114185000D01*
X181665000Y-114185000D02*
X181665000Y-144905000D01*
X166255000Y-144845000D02*
X166255000Y-114245000D01*
%TO.C,Battery1*%
X158030609Y-141732618D02*
X157537559Y-143572707D01*
X160199398Y-140998943D02*
X159870698Y-142225668D01*
X157537559Y-143572707D02*
X156310833Y-143244007D01*
X157132584Y-140177192D02*
X157625634Y-138337103D01*
X157625634Y-138337103D02*
X158852360Y-138665804D01*
X155292495Y-139684142D02*
X157132584Y-140177192D01*
X156803884Y-141403918D02*
X154963795Y-140910868D01*
X158852360Y-138665804D02*
X158359310Y-140505892D01*
X156310833Y-143244007D02*
X156803884Y-141403918D01*
X154963795Y-140910868D02*
X155292495Y-139684142D01*
X159870698Y-142225668D02*
X158030609Y-141732618D01*
X158359310Y-140505892D02*
X160199398Y-140998943D01*
X87493876Y-122832357D02*
X93627505Y-124475858D01*
X93627505Y-124475858D02*
X93956205Y-123249132D01*
X93956205Y-123249132D02*
X87822576Y-121605631D01*
X87822576Y-121605631D02*
X87493876Y-122832357D01*
X97536369Y-116842444D02*
X155395326Y-132345705D01*
X155395326Y-132345705D02*
X151383631Y-147317556D01*
X151383631Y-147317556D02*
X93524674Y-131814295D01*
X93524674Y-131814295D02*
X97536369Y-116842444D01*
%TD*%
M02*
