M48
; DRILL file {KiCad 6.0.6-3a73a75311~116~ubuntu22.04.1} date Sun 03 Jul 2022 12:29:10 PM CDT
; FORMAT={-:-/ absolute / metric / decimal}
; #@! TF.CreationDate,2022-07-03T12:29:10-05:00
; #@! TF.GenerationSoftware,Kicad,Pcbnew,6.0.6-3a73a75311~116~ubuntu22.04.1
; #@! TF.FileFunction,NonPlated,1,2,NPTH
FMAT,2
METRIC
; #@! TA.AperFunction,NonPlated,NPTH,ComponentDrill
T1C1.702
; #@! TA.AperFunction,NonPlated,NPTH,ComponentDrill
T2C2.000
; #@! TA.AperFunction,NonPlated,NPTH,ComponentDrill
T3C3.000
; #@! TA.AperFunction,NonPlated,NPTH,ComponentDrill
T4C3.988
%
G90
G05
T1
X87.06Y-55.31
X87.06Y-65.47
X87.06Y-74.81
X87.06Y-84.97
X87.06Y-113.81
X87.06Y-123.97
X87.06Y-94.31
X87.06Y-104.47
X101.48Y-55.515
X101.48Y-75.015
X101.48Y-94.515
X101.48Y-114.015
X111.64Y-55.515
X111.64Y-75.015
X111.64Y-94.515
X111.64Y-114.015
X120.98Y-50.64
X120.98Y-70.14
X126.06Y-84.56
X126.06Y-94.72
X126.06Y-104.06
X126.06Y-114.22
X131.14Y-50.64
X131.14Y-70.14
X140.48Y-45.765
X140.48Y-65.265
X145.56Y-79.685
X145.56Y-89.845
X145.56Y-99.185
X145.56Y-109.345
X150.64Y-45.765
X150.64Y-65.265
X159.98Y-50.64
X159.98Y-70.14
X159.98Y-89.64
X159.98Y-109.14
X170.14Y-50.64
X170.14Y-70.14
X170.14Y-89.64
X170.14Y-109.14
X179.48Y-50.64
X179.48Y-70.14
X179.48Y-89.64
X179.48Y-109.14
X189.64Y-50.64
X189.64Y-70.14
X189.64Y-89.64
X189.64Y-109.14
X199.844Y-115.556
X208.831Y-120.296
X216.027Y-127.732
X223.604Y-134.501
T2
X129.16Y-134.18
X142.62Y-134.18
T3
X89.6Y-56.58
X89.6Y-64.2
X89.6Y-76.08
X89.6Y-83.7
X89.6Y-115.08
X89.6Y-122.7
X89.6Y-95.58
X89.6Y-103.2
X92.14Y-57.85
X92.14Y-62.93
X92.14Y-77.35
X92.14Y-82.43
X92.14Y-116.35
X92.14Y-121.43
X92.14Y-96.85
X92.14Y-101.93
X102.75Y-58.055
X102.75Y-72.475
X102.75Y-91.975
X102.75Y-111.475
X104.02Y-60.595
X104.02Y-69.935
X104.02Y-89.435
X104.02Y-108.935
X109.1Y-60.595
X109.1Y-69.935
X109.1Y-89.435
X109.1Y-108.935
X110.37Y-58.055
X110.37Y-72.475
X110.37Y-91.975
X110.37Y-111.475
X120.98Y-87.1
X120.98Y-92.18
X120.98Y-106.6
X120.98Y-111.68
X122.25Y-53.18
X122.25Y-67.6
X123.52Y-55.72
X123.52Y-65.06
X123.52Y-85.83
X123.52Y-93.45
X123.52Y-105.33
X123.52Y-112.95
X128.6Y-55.72
X128.6Y-65.06
X129.87Y-53.18
X129.87Y-67.6
X141.75Y-48.305
X141.75Y-62.725
X143.02Y-50.845
X143.02Y-60.185
X148.1Y-50.845
X148.1Y-60.185
X148.1Y-80.955
X148.1Y-88.575
X148.1Y-100.455
X148.1Y-108.075
X149.37Y-48.305
X149.37Y-62.725
X150.64Y-82.225
X150.64Y-87.305
X150.64Y-101.725
X150.64Y-106.805
X161.25Y-53.18
X161.25Y-67.6
X161.25Y-87.1
X161.25Y-106.6
X162.52Y-55.72
X162.52Y-65.06
X162.52Y-84.56
X162.52Y-104.06
X167.6Y-55.72
X167.6Y-65.06
X167.6Y-84.56
X167.6Y-104.06
X168.87Y-53.18
X168.87Y-67.6
X168.87Y-87.1
X168.87Y-106.6
X180.75Y-53.18
X180.75Y-67.6
X180.75Y-92.18
X180.75Y-106.6
X182.02Y-55.72
X182.02Y-65.06
X182.02Y-94.72
X182.02Y-104.06
X187.1Y-55.72
X187.1Y-65.06
X187.1Y-94.72
X187.1Y-104.06
X188.37Y-53.18
X188.37Y-67.6
X188.37Y-92.18
X188.37Y-106.6
X199.721Y-121.234
X199.783Y-118.395
X204.214Y-123.604
X206.523Y-121.95
X214.537Y-133.213
X215.282Y-130.472
X218.325Y-136.597
X220.965Y-135.549
T4
X87.06Y-60.39
X87.06Y-79.89
X87.06Y-118.89
X87.06Y-99.39
X106.56Y-55.515
X106.56Y-75.015
X106.56Y-94.515
X106.56Y-114.015
X126.06Y-50.64
X126.06Y-70.14
X126.06Y-89.64
X126.06Y-109.14
X145.56Y-45.765
X145.56Y-65.265
X145.56Y-84.765
X145.56Y-104.265
X165.06Y-50.64
X165.06Y-70.14
X165.06Y-89.64
X165.06Y-109.14
X184.56Y-50.64
X184.56Y-70.14
X184.56Y-89.64
X184.56Y-109.14
X204.338Y-117.926
X219.816Y-131.117
T0
M30
